<svg width="594.8" height="304.55" version="1.1" viewBox="0 0 594.8 304.55" xmlns="http://www.w3.org/2000/svg">
 <defs>
  <clipPath id="ai">
   <path d="m0 0h612v810h-612z"/>
  </clipPath>
  <clipPath id="ah">
   <path d="m0 0h612v810h-612z"/>
  </clipPath>
  <clipPath id="ag">
   <path d="m0 0h612v810h-612z"/>
  </clipPath>
  <clipPath id="af">
   <path d="m0 0h612v810h-612z"/>
  </clipPath>
  <clipPath id="ae">
   <path d="m0 0h612v810h-612z"/>
  </clipPath>
  <clipPath id="ad">
   <path d="m0 0h612v810h-612z"/>
  </clipPath>
  <clipPath id="ac">
   <path d="m0 0h612v810h-612z"/>
  </clipPath>
  <clipPath id="ab">
   <path d="m0 0h612v810h-612z"/>
  </clipPath>
  <clipPath id="aa">
   <path d="m0 0h612v810h-612z"/>
  </clipPath>
  <clipPath id="z">
   <path d="m0 0h612v810h-612z"/>
  </clipPath>
  <clipPath id="y">
   <path d="m0 0h612v810h-612z"/>
  </clipPath>
  <clipPath id="x">
   <path d="m0 0h612v810h-612z"/>
  </clipPath>
  <clipPath id="w">
   <path d="m0 0h612v810h-612z"/>
  </clipPath>
  <clipPath id="v">
   <path d="m0 0h612v810h-612z"/>
  </clipPath>
  <clipPath id="u">
   <path d="m0 0h612v810h-612z"/>
  </clipPath>
  <clipPath id="t">
   <path d="m0 0h612v810h-612z"/>
  </clipPath>
  <clipPath id="s">
   <path d="m0 0h612v810h-612z"/>
  </clipPath>
  <clipPath id="r">
   <path d="m0 0h612v810h-612z"/>
  </clipPath>
  <clipPath id="q">
   <path d="m0 0h612v810h-612z"/>
  </clipPath>
  <clipPath id="p">
   <path d="m0 0h612v810h-612z"/>
  </clipPath>
  <clipPath id="o">
   <path d="m0 0h612v810h-612z"/>
  </clipPath>
  <clipPath id="n">
   <path d="m0 0h612v810h-612z"/>
  </clipPath>
  <clipPath id="m">
   <path d="m0 0h612v810h-612z"/>
  </clipPath>
  <clipPath id="l">
   <path d="m0 0h612v810h-612z"/>
  </clipPath>
  <clipPath id="k">
   <path d="m0 0h612v810h-612z"/>
  </clipPath>
  <clipPath id="j">
   <path d="m0 0h612v810h-612z"/>
  </clipPath>
  <clipPath id="i">
   <path d="m0 0h612v810h-612z"/>
  </clipPath>
  <clipPath id="h">
   <path d="m0 0h612v810h-612z"/>
  </clipPath>
  <clipPath id="g">
   <path d="m0 0h612v810h-612z"/>
  </clipPath>
  <clipPath id="f">
   <path d="m0 0h612v810h-612z"/>
  </clipPath>
  <clipPath id="e">
   <path d="m0 0h612v810h-612z"/>
  </clipPath>
  <clipPath id="d">
   <path d="m0 0h612v810h-612z"/>
  </clipPath>
  <clipPath id="c">
   <path d="m0 0h612v810h-612z"/>
  </clipPath>
  <clipPath id="b">
   <path d="m0 0h612v810h-612z"/>
  </clipPath>
  <clipPath id="a">
   <path d="m0 0h612v810h-612z"/>
  </clipPath>
 </defs>
 <g transform="matrix(1.3333 0 0 -1.3333 -107.3 995.82)">
  <path d="m138.56 557.13h379.09m-379.09 0v3.786m-7.089-13.876-1.251-0.429-0.839-1.249-0.411-2.072v-1.268l0.411-2.072 0.839-1.267 1.251-0.411h0.839l1.25 0.411 0.822 1.267 0.428 2.072v1.268l-0.428 2.072-0.822 1.249-1.25 0.429h-0.839l-0.84-0.429-0.411-0.41-0.428-0.839-0.411-2.072v-1.268l0.411-2.072 0.428-0.839 0.411-0.428 0.84-0.411m0.839 0 0.821 0.411 0.429 0.428 0.411 0.839 0.411 2.072v1.268l-0.411 2.072-0.411 0.839-0.429 0.41-0.821 0.429m5.84-7.929-0.429-0.428 0.429-0.411 0.41 0.411-0.41 0.428m5.839 7.929-1.25-0.429-0.839-1.249-0.411-2.072v-1.268l0.411-2.072 0.839-1.267 1.25-0.411h0.839l1.251 0.411 0.839 1.267 0.41 2.072v1.268l-0.41 2.072-0.839 1.249-1.251 0.429h-0.839l-0.839-0.429-0.411-0.41-0.428-0.839-0.411-2.072v-1.268l0.411-2.072 0.428-0.839 0.411-0.428 0.839-0.411m0.839 0 0.822 0.411 0.429 0.428 0.41 0.839 0.429 2.072v1.268l-0.429 2.072-0.41 0.839-0.429 0.41-0.822 0.429m88.505 10.09v3.786m-7.089-13.876-1.25-0.429-0.84-1.249-0.41-2.072v-1.268l0.41-2.072 0.84-1.267 1.25-0.411h0.839l1.25 0.411 0.822 1.267 0.428 2.072v1.268l-0.428 2.072-0.822 1.249-1.25 0.429h-0.839l-0.84-0.429-0.41-0.41-0.429-0.839-0.411-2.072v-1.268l0.411-2.072 0.429-0.839 0.41-0.428 0.84-0.411m0.839 0 0.821 0.411 0.429 0.428 0.411 0.839 0.411 2.072v1.268l-0.411 2.072-0.411 0.839-0.429 0.41-0.821 0.429m5.84-7.929-0.429-0.428 0.429-0.411 0.41 0.411-0.41 0.428m4.161 7.929-0.822-4.179 0.822 0.84 1.268 0.41h1.25l1.25-0.41 0.839-0.84 0.411-1.25v-0.839l-0.411-1.25-0.839-0.839-1.25-0.411h-1.25l-1.268 0.411-0.411 0.428-0.411 0.839v0.411l0.411 0.411 0.411-0.411-0.411-0.411m2.929 4.161 0.821-0.41 0.839-0.84 0.429-1.25v-0.839l-0.429-1.25-0.839-0.839-0.821-0.411m-2.518 8.768h4.178m-4.178-0.429h2.089l2.089 0.429m86.845 10.09v3.786m-8.34-15.554 0.839 0.428 1.25 1.25v-8.768m-0.428 8.339v-8.339m-1.661 0h3.75m4.179 0.839-0.429-0.428 0.429-0.411 0.411 0.411-0.411 0.428m5.84 7.929-1.25-0.429-0.84-1.249-0.411-2.072v-1.268l0.411-2.072 0.84-1.267 1.25-0.411h0.839l1.25 0.411 0.839 1.267 0.411 2.072v1.268l-0.411 2.072-0.839 1.249-1.25 0.429h-0.839l-0.839-0.429-0.411-0.41-0.43-0.839-0.41-2.072v-1.268l0.41-2.072 0.43-0.839 0.411-0.428 0.839-0.411m0.839 0 0.821 0.411 0.429 0.428 0.411 0.839 0.428 2.072v1.268l-0.428 2.072-0.411 0.839-0.429 0.41-0.821 0.429m88.504 10.09v3.786m-8.34-15.554 0.841 0.428 1.25 1.25v-8.768m-0.43 8.339v-8.339m-1.661 0h3.751m4.178 0.839-0.428-0.428 0.428-0.411 0.411 0.411-0.411 0.428m4.162 7.929-0.822-4.179 0.822 0.84 1.268 0.41h1.249l1.25-0.41 0.841-0.84 0.409-1.25v-0.839l-0.409-1.25-0.841-0.839-1.25-0.411h-1.249l-1.268 0.411-0.411 0.428-0.411 0.839v0.411l0.411 0.411 0.411-0.411-0.411-0.411m2.928 4.161 0.822-0.41 0.839-0.84 0.43-1.25v-0.839l-0.43-1.25-0.839-0.839-0.822-0.411m-2.517 8.768h4.178m-4.178-0.429h2.089l2.089 0.429m86.845 10.09v3.786m-9.179-15.554 0.41-0.411-0.41-0.411-0.411 0.411v0.411l0.411 0.839 0.41 0.41 1.268 0.429h1.661l1.25-0.429 0.411-0.41 0.428-0.839v-0.822l-0.428-0.839-1.25-0.84-2.072-0.839-0.839-0.411-0.839-0.839-0.411-1.25v-1.25m3.75 8.768 0.839-0.429 0.411-0.41 0.411-0.839v-0.822l-0.411-0.839-1.25-0.84-1.661-0.839m-2.089-2.911 0.411 0.411h0.839l2.089-0.839h1.25l0.822 0.428 0.428 0.411m-4.589 0 2.089-1.25h1.661l0.411 0.411 0.428 0.839v0.839m3.34-1.25-0.428-0.428 0.428-0.411 0.411 0.411-0.411 0.428m5.84 7.929-1.251-0.429-0.839-1.249-0.411-2.072v-1.268l0.411-2.072 0.839-1.267 1.251-0.411h0.839l1.25 0.411 0.839 1.267 0.411 2.072v1.268l-0.411 2.072-0.839 1.249-1.25 0.429h-0.839l-0.84-0.429-0.411-0.41-0.428-0.839-0.411-2.072v-1.268l0.411-2.072 0.428-0.839 0.411-0.428 0.84-0.411m0.839 0 0.822 0.411 0.428 0.428 0.411 0.839 0.428 2.072v1.268l-0.428 2.072-0.411 0.839-0.428 0.41-0.822 0.429m-366.4 10.09v1.893m18.947-1.893v1.893m18.948-1.893v1.893m18.965-1.893v1.893m37.913-1.893v1.893m18.947-1.893v1.893m18.948-1.893v1.893m18.965-1.893v1.893m37.913-1.893v1.893m18.948-1.893v1.893m18.946-1.893v1.893m18.967-1.893v1.893m37.911-1.893v1.893m18.948-1.893v1.893m18.948-1.893v1.893m18.965-1.893v1.893m-184.9-31.252 4.608-5.84m-4.179 5.84 4.59-5.84m0 5.84-5.019-5.84m-0.821 5.84h2.5m1.66 0h2.519m-6.679-5.84h2.5m1.66 0h2.519m4.34-0.232 0.267 0.518v-1.018l-0.267 0.5-0.251 0.268-0.518 0.25h-1.035l-0.518-0.25-0.25-0.268v-0.5l0.25-0.268 0.518-0.249 1.286-0.518 0.518-0.268 0.267-0.25m-2.839 1.803 0.25-0.25 0.518-0.268 1.286-0.517 0.518-0.25 0.267-0.268v-0.768l-0.267-0.268-0.518-0.25h-1.019l-0.518 0.25-0.267 0.268-0.25 0.518v-1.036l0.25 0.518m11.554 13.233-7.518-13.769m12.107 8.768-1.678-5.429m1.678 5.429-1.25-5.429m3.751 5.429v-5.429m0 5.429 0.411-5.429m-5.84 4.59 0.839 0.839 1.25 0.411h5.429m-7.518-1.25 0.839 0.411 1.25 0.428h5.429m-203.85 219.32h379.09m-379.09 0v-3.786m94.773 3.786v-3.786m94.774 3.786v-3.786m94.772 3.786v-3.786m94.774 3.786v-3.786m-360.13 3.786v-1.893m18.947 1.893v-1.893m18.948 1.893v-1.893m18.965 1.893v-1.893m37.913 1.893v-1.893m18.947 1.893v-1.893m18.948 1.893v-1.893m18.965 1.893v-1.893m37.913 1.893v-1.893m18.948 1.893v-1.893m18.946 1.893v-1.893m18.967 1.893v-1.893m37.911 1.893v-1.893m18.948 1.893v-1.893m18.948 1.893v-1.893m18.965 1.893v-1.893m-360.14-187.65v189.55m0-170.6h7.59m-42.02-1.268h7.518m5.429 5.019-1.25-0.429-0.84-1.25-0.428-2.089v-1.251l0.428-2.089 0.84-1.25 1.25-0.411h0.821l1.268 0.411 0.822 1.25 0.428 2.089v1.251l-0.428 2.089-0.822 1.25-1.268 0.429h-0.821l-0.839-0.429-0.411-0.411-0.429-0.839-0.411-2.089v-1.251l0.411-2.089 0.429-0.822 0.411-0.428 0.839-0.411m0.821 0 0.84 0.411 0.428 0.428 0.411 0.822 0.411 2.089v1.251l-0.411 2.089-0.411 0.839-0.428 0.411-0.84 0.429m5.858-7.93-0.429-0.428 0.429-0.411 0.411 0.411-0.411 0.428m7.09 7.09v-7.929m0.41 8.769v-8.769m0 8.769-4.589-6.269h6.679m-3.751-2.5h2.911m6.054 42.931h7.59m-42.02-1.268h7.518m5.429 5.001-1.25-0.411-0.84-1.25-0.428-2.09v-1.25l0.428-2.089 0.84-1.25 1.25-0.411h0.821l1.268 0.411 0.822 1.25 0.428 2.089v1.25l-0.428 2.09-0.822 1.25-1.268 0.411h-0.821l-0.839-0.411-0.411-0.411-0.429-0.839-0.411-2.09v-1.25l0.411-2.089 0.429-0.84 0.411-0.41 0.839-0.411m0.821 0 0.84 0.411 0.428 0.41 0.411 0.84 0.411 2.089v1.25l-0.411 2.09-0.411 0.839-0.428 0.411-0.84 0.411m5.858-7.93-0.429-0.41 0.429-0.411 0.411 0.411-0.411 0.41m3.75 6.269 0.411-0.411-0.411-0.428-0.411 0.428v0.411l0.411 0.839 0.411 0.411 1.25 0.411h1.679l1.25-0.411 0.41-0.411 0.429-0.839v-0.839l-0.429-0.84-1.25-0.822-2.089-0.839-0.822-0.41-0.839-0.84-0.411-1.25v-1.25m3.751 8.751 0.839-0.411 0.411-0.411 0.41-0.839v-0.839l-0.41-0.84-1.25-0.822-1.679-0.839m-2.072-2.929 0.411 0.429h0.84l2.071-0.839h1.268l0.821 0.41 0.429 0.429m-4.589 0 2.071-1.25h1.679l0.41 0.411 0.429 0.839v0.839m5.625 40.842h7.59m-29.073 3.732-1.25-0.411-0.84-1.25-0.428-2.089v-1.25l0.428-2.09 0.84-1.25 1.25-0.411h0.821l1.268 0.411 0.822 1.25 0.428 2.09v1.25l-0.428 2.089-0.822 1.25-1.268 0.411h-0.821l-0.839-0.411-0.411-0.428-0.429-0.822-0.411-2.089v-1.25l0.411-2.09 0.429-0.839 0.411-0.411 0.839-0.411m0.821 0 0.84 0.411 0.428 0.411 0.411 0.839 0.411 2.09v1.25l-0.411 2.089-0.411 0.822-0.428 0.428-0.84 0.411m5.858-7.929-0.429-0.411 0.429-0.411 0.411 0.411-0.411 0.411m5.839 7.929-1.249-0.411-0.84-1.25-0.411-2.089v-1.25l0.411-2.09 0.84-1.25 1.249-0.411h0.822l1.268 0.411 0.821 1.25 0.429 2.09v1.25l-0.429 2.089-0.821 1.25-1.268 0.411h-0.822l-0.839-0.411-0.41-0.428-0.429-0.822-0.411-2.089v-1.25l0.411-2.09 0.429-0.839 0.41-0.411 0.839-0.411m0.822 0 0.839 0.411 0.429 0.411 0.411 0.839 0.41 2.09v1.25l-0.41 2.089-0.411 0.822-0.429 0.428-0.839 0.411m8.143 34.181h7.59m-29.073 3.732-1.25-0.411-0.84-1.25-0.428-2.089v-1.25l0.428-2.09 0.84-1.25 1.25-0.428h0.821l1.268 0.428 0.822 1.25 0.428 2.09v1.25l-0.428 2.089-0.822 1.25-1.268 0.411h-0.821l-0.839-0.411-0.411-0.428-0.429-0.822-0.411-2.089v-1.25l0.411-2.09 0.429-0.839 0.411-0.411 0.839-0.428m0.821 0 0.84 0.428 0.428 0.411 0.411 0.839 0.411 2.09v1.25l-0.411 2.089-0.411 0.822-0.428 0.428-0.84 0.411m5.858-7.929-0.429-0.411 0.429-0.428 0.411 0.428-0.411 0.411m3.75 6.268 0.411-0.428-0.411-0.411-0.411 0.411v0.428l0.411 0.822 0.411 0.428 1.25 0.411h1.679l1.25-0.411 0.41-0.428 0.429-0.822v-0.839l-0.429-0.839-1.25-0.839-2.089-0.822-0.822-0.429-0.839-0.821-0.411-1.268v-1.25m3.751 8.768 0.839-0.411 0.411-0.428 0.41-0.822v-0.839l-0.41-0.839-1.25-0.839-1.679-0.822m-2.072-2.929 0.411 0.411h0.84l2.071-0.822h1.268l0.821 0.411 0.429 0.411m-4.589 0 2.071-1.25h1.679l0.41 0.428 0.429 0.822v0.839m5.625 40.86h7.59m-29.073 3.732-1.25-0.428-0.84-1.25-0.428-2.072v-1.268l0.428-2.072 0.84-1.267 1.25-0.411h0.821l1.268 0.411 0.822 1.267 0.428 2.072v1.268l-0.428 2.072-0.822 1.25-1.268 0.428h-0.821l-0.839-0.428-0.411-0.411-0.429-0.839-0.411-2.072v-1.268l0.411-2.072 0.429-0.839 0.411-0.428 0.839-0.411m0.821 0 0.84 0.411 0.428 0.428 0.411 0.839 0.411 2.072v1.268l-0.411 2.072-0.411 0.839-0.428 0.411-0.84 0.428m5.858-7.929-0.429-0.428 0.429-0.411 0.411 0.411-0.411 0.428m7.09 7.09v-7.929m0.41 8.768v-8.768m0 8.768-4.589-6.268h6.679m-3.751-2.5h2.911m6.054-165.56h3.786m-3.786 9.483h3.786m-3.786 18.947h3.786m-3.786 9.483h3.786m-3.786 9.482h3.786m-3.786 18.948h3.786m-3.786 9.482h3.786m-3.786 9.465h3.786m-3.786 18.965h3.786m-3.786 9.465h3.786m-3.786 9.483h3.786m-3.786 18.965h3.786m-3.786 9.465h3.786m-3.786 9.483h3.786m-3.786 18.948h3.786m-3.786 9.482h3.786m-57.199-108.86 5.839 2.499m-5.839-2.071 5 2.071m-5 2.518 5.839-2.518 2.09-0.821 0.839-0.839 0.411-0.839v-0.412l-0.411-0.429-0.429 0.429 0.429 0.412m-8.768-0.841v2.519m0 1.661v2.499m6.071 3.947-0.518 0.25h1.036l-0.518-0.25-0.268-0.268-0.25-0.518v-1.035l0.25-0.518 0.268-0.251h0.518l0.25 0.251 0.25 0.518 0.518 1.303 0.268 0.518 0.25 0.25m-1.804-2.84 0.268 0.251 0.25 0.518 0.518 1.303 0.25 0.518 0.268 0.25h0.768l0.268-0.25 0.25-0.518v-1.036l-0.25-0.518-0.268-0.267-0.518-0.251h1.036l-0.518 0.251m-13.233 11.554 13.769-7.518m-8.769 12.108 5.429-1.661m-5.429 1.661 5.429-1.25m-5.429 3.75h5.429m-5.429 0 5.429 0.428m-4.589-5.857-0.84 0.839-0.41 1.251v5.428m1.25-7.518-0.411 0.839-0.429 1.251v5.428m432.1-108.86v189.55m0-170.6h-7.572m7.572 37.913h-7.572m7.572 37.913h-7.572m7.572 37.913h-7.572m7.572 37.913h-7.572m7.572-170.6h-3.786m3.786 9.483h-3.786m3.786 18.947h-3.786m3.786 9.483h-3.786m3.786 9.482h-3.786m3.786 18.948h-3.786m3.786 9.482h-3.786m3.786 9.465h-3.786m3.786 18.965h-3.786m3.786 9.465h-3.786m3.786 9.483h-3.786m3.786 18.965h-3.786m3.786 9.465h-3.786m3.786 9.483h-3.786m3.786 18.948h-3.786m3.786 9.482h-3.786" clip-path="url(#a)" fill="none" stroke="#231f20" stroke-miterlimit="2.5" stroke-width=".315"/>
  <path d="m138.56 746.68h379.09v-47.378l-47.378 47.378-47.396-47.378-47.377 47.378-47.395-47.378-47.378 47.378-47.396-47.378-47.377 47.378-47.396-47.378v47.378" clip-path="url(#b)" fill="#c8cbd1"/>
  <path d="m138.56 557.13h379.09v47.395l-47.378-47.395-47.396 47.395-47.377-47.395-47.395 47.395-47.378-47.395-47.396 47.395-47.377-47.395-47.396 47.395v-47.395" clip-path="url(#c)" fill="#c8cbd1"/>
  <g fill="none" stroke="#231f20" stroke-miterlimit="2.5">
   <g>
    <path d="m138.56 557.13h379.09m-379.09 0v3.786m-7.089-13.876-1.251-0.429-0.839-1.249-0.411-2.072v-1.268l0.411-2.072 0.839-1.267 1.251-0.411h0.839l1.25 0.411 0.822 1.267 0.428 2.072v1.268l-0.428 2.072-0.822 1.249-1.25 0.429h-0.839l-0.84-0.429-0.411-0.41-0.428-0.839-0.411-2.072v-1.268l0.411-2.072 0.428-0.839 0.411-0.428 0.84-0.411m0.839 0 0.821 0.411 0.429 0.428 0.411 0.839 0.411 2.072v1.268l-0.411 2.072-0.411 0.839-0.429 0.41-0.821 0.429m5.84-7.929-0.429-0.428 0.429-0.411 0.41 0.411-0.41 0.428m5.839 7.929-1.25-0.429-0.839-1.249-0.411-2.072v-1.268l0.411-2.072 0.839-1.267 1.25-0.411h0.839l1.251 0.411 0.839 1.267 0.41 2.072v1.268l-0.41 2.072-0.839 1.249-1.251 0.429h-0.839l-0.839-0.429-0.411-0.41-0.428-0.839-0.411-2.072v-1.268l0.411-2.072 0.428-0.839 0.411-0.428 0.839-0.411m0.839 0 0.822 0.411 0.429 0.428 0.41 0.839 0.429 2.072v1.268l-0.429 2.072-0.41 0.839-0.429 0.41-0.822 0.429m88.505 10.09v3.786m-7.089-13.876-1.25-0.429-0.84-1.249-0.41-2.072v-1.268l0.41-2.072 0.84-1.267 1.25-0.411h0.839l1.25 0.411 0.822 1.267 0.428 2.072v1.268l-0.428 2.072-0.822 1.249-1.25 0.429h-0.839l-0.84-0.429-0.41-0.41-0.429-0.839-0.411-2.072v-1.268l0.411-2.072 0.429-0.839 0.41-0.428 0.84-0.411m0.839 0 0.821 0.411 0.429 0.428 0.411 0.839 0.411 2.072v1.268l-0.411 2.072-0.411 0.839-0.429 0.41-0.821 0.429m5.84-7.929-0.429-0.428 0.429-0.411 0.41 0.411-0.41 0.428m4.161 7.929-0.822-4.179 0.822 0.84 1.268 0.41h1.25l1.25-0.41 0.839-0.84 0.411-1.25v-0.839l-0.411-1.25-0.839-0.839-1.25-0.411h-1.25l-1.268 0.411-0.411 0.428-0.411 0.839v0.411l0.411 0.411 0.411-0.411-0.411-0.411m2.929 4.161 0.821-0.41 0.839-0.84 0.429-1.25v-0.839l-0.429-1.25-0.839-0.839-0.821-0.411m-2.518 8.768h4.178m-4.178-0.429h2.089l2.089 0.429m86.845 10.09v3.786m-8.34-15.554 0.839 0.428 1.25 1.25v-8.768m-0.428 8.339v-8.339m-1.661 0h3.75m4.179 0.839-0.429-0.428 0.429-0.411 0.411 0.411-0.411 0.428m5.84 7.929-1.25-0.429-0.84-1.249-0.411-2.072v-1.268l0.411-2.072 0.84-1.267 1.25-0.411h0.839l1.25 0.411 0.839 1.267 0.411 2.072v1.268l-0.411 2.072-0.839 1.249-1.25 0.429h-0.839l-0.839-0.429-0.411-0.41-0.43-0.839-0.41-2.072v-1.268l0.41-2.072 0.43-0.839 0.411-0.428 0.839-0.411m0.839 0 0.821 0.411 0.429 0.428 0.411 0.839 0.428 2.072v1.268l-0.428 2.072-0.411 0.839-0.429 0.41-0.821 0.429m88.504 10.09v3.786m-8.34-15.554 0.841 0.428 1.25 1.25v-8.768m-0.43 8.339v-8.339m-1.661 0h3.751m4.178 0.839-0.428-0.428 0.428-0.411 0.411 0.411-0.411 0.428m4.162 7.929-0.822-4.179 0.822 0.84 1.268 0.41h1.249l1.25-0.41 0.841-0.84 0.409-1.25v-0.839l-0.409-1.25-0.841-0.839-1.25-0.411h-1.249l-1.268 0.411-0.411 0.428-0.411 0.839v0.411l0.411 0.411 0.411-0.411-0.411-0.411m2.928 4.161 0.822-0.41 0.839-0.84 0.43-1.25v-0.839l-0.43-1.25-0.839-0.839-0.822-0.411m-2.517 8.768h4.178m-4.178-0.429h2.089l2.089 0.429m86.845 10.09v3.786m-9.179-15.554 0.41-0.411-0.41-0.411-0.411 0.411v0.411l0.411 0.839 0.41 0.41 1.268 0.429h1.661l1.25-0.429 0.411-0.41 0.428-0.839v-0.822l-0.428-0.839-1.25-0.84-2.072-0.839-0.839-0.411-0.839-0.839-0.411-1.25v-1.25m3.75 8.768 0.839-0.429 0.411-0.41 0.411-0.839v-0.822l-0.411-0.839-1.25-0.84-1.661-0.839m-2.089-2.911 0.411 0.411h0.839l2.089-0.839h1.25l0.822 0.428 0.428 0.411m-4.589 0 2.089-1.25h1.661l0.411 0.411 0.428 0.839v0.839m3.34-1.25-0.428-0.428 0.428-0.411 0.411 0.411-0.411 0.428m5.84 7.929-1.251-0.429-0.839-1.249-0.411-2.072v-1.268l0.411-2.072 0.839-1.267 1.251-0.411h0.839l1.25 0.411 0.839 1.267 0.411 2.072v1.268l-0.411 2.072-0.839 1.249-1.25 0.429h-0.839l-0.84-0.429-0.411-0.41-0.428-0.839-0.411-2.072v-1.268l0.411-2.072 0.428-0.839 0.411-0.428 0.84-0.411m0.839 0 0.822 0.411 0.428 0.428 0.411 0.839 0.428 2.072v1.268l-0.428 2.072-0.411 0.839-0.428 0.41-0.822 0.429m-366.4 10.09v1.893m18.947-1.893v1.893m18.948-1.893v1.893m18.965-1.893v1.893m37.913-1.893v1.893m18.947-1.893v1.893m18.948-1.893v1.893m18.965-1.893v1.893m37.913-1.893v1.893m18.948-1.893v1.893m18.946-1.893v1.893m18.967-1.893v1.893m37.911-1.893v1.893m18.948-1.893v1.893m18.948-1.893v1.893m18.965-1.893v1.893m-184.9-31.252 4.608-5.84m-4.179 5.84 4.59-5.84m0 5.84-5.019-5.84m-0.821 5.84h2.5m1.66 0h2.519m-6.679-5.84h2.5m1.66 0h2.519m4.34-0.232 0.267 0.518v-1.018l-0.267 0.5-0.251 0.268-0.518 0.25h-1.035l-0.518-0.25-0.25-0.268v-0.5l0.25-0.268 0.518-0.249 1.286-0.518 0.518-0.268 0.267-0.25m-2.839 1.803 0.25-0.25 0.518-0.268 1.286-0.517 0.518-0.25 0.267-0.268v-0.768l-0.267-0.268-0.518-0.25h-1.019l-0.518 0.25-0.267 0.268-0.25 0.518v-1.036l0.25 0.518m11.554 13.233-7.518-13.769m12.107 8.768-1.678-5.429m1.678 5.429-1.25-5.429m3.751 5.429v-5.429m0 5.429 0.411-5.429m-5.84 4.59 0.839 0.839 1.25 0.411h5.429m-7.518-1.25 0.839 0.411 1.25 0.428h5.429m-203.85 219.32h379.09m-379.09 0v-3.786m94.773 3.786v-3.786m94.774 3.786v-3.786m94.772 3.786v-3.786m94.774 3.786v-3.786m-360.13 3.786v-1.893m18.947 1.893v-1.893m18.948 1.893v-1.893m18.965 1.893v-1.893m37.913 1.893v-1.893m18.947 1.893v-1.893m18.948 1.893v-1.893m18.965 1.893v-1.893m37.913 1.893v-1.893m18.948 1.893v-1.893m18.946 1.893v-1.893m18.967 1.893v-1.893m37.911 1.893v-1.893m18.948 1.893v-1.893m18.948 1.893v-1.893m18.965 1.893v-1.893m-360.14-187.65v189.55m0-170.6h7.59m-42.02-1.268h7.518m5.429 5.019-1.25-0.429-0.84-1.25-0.428-2.089v-1.251l0.428-2.089 0.84-1.25 1.25-0.411h0.821l1.268 0.411 0.822 1.25 0.428 2.089v1.251l-0.428 2.089-0.822 1.25-1.268 0.429h-0.821l-0.839-0.429-0.411-0.411-0.429-0.839-0.411-2.089v-1.251l0.411-2.089 0.429-0.822 0.411-0.428 0.839-0.411m0.821 0 0.84 0.411 0.428 0.428 0.411 0.822 0.411 2.089v1.251l-0.411 2.089-0.411 0.839-0.428 0.411-0.84 0.429m5.858-7.93-0.429-0.428 0.429-0.411 0.411 0.411-0.411 0.428m7.09 7.09v-7.929m0.41 8.769v-8.769m0 8.769-4.589-6.269h6.679m-3.751-2.5h2.911m6.054 42.931h7.59m-42.02-1.268h7.518m5.429 5.001-1.25-0.411-0.84-1.25-0.428-2.09v-1.25l0.428-2.089 0.84-1.25 1.25-0.411h0.821l1.268 0.411 0.822 1.25 0.428 2.089v1.25l-0.428 2.09-0.822 1.25-1.268 0.411h-0.821l-0.839-0.411-0.411-0.411-0.429-0.839-0.411-2.09v-1.25l0.411-2.089 0.429-0.84 0.411-0.41 0.839-0.411m0.821 0 0.84 0.411 0.428 0.41 0.411 0.84 0.411 2.089v1.25l-0.411 2.09-0.411 0.839-0.428 0.411-0.84 0.411m5.858-7.93-0.429-0.41 0.429-0.411 0.411 0.411-0.411 0.41m3.75 6.269 0.411-0.411-0.411-0.428-0.411 0.428v0.411l0.411 0.839 0.411 0.411 1.25 0.411h1.679l1.25-0.411 0.41-0.411 0.429-0.839v-0.839l-0.429-0.84-1.25-0.822-2.089-0.839-0.822-0.41-0.839-0.84-0.411-1.25v-1.25m3.751 8.751 0.839-0.411 0.411-0.411 0.41-0.839v-0.839l-0.41-0.84-1.25-0.822-1.679-0.839m-2.072-2.929 0.411 0.429h0.84l2.071-0.839h1.268l0.821 0.41 0.429 0.429m-4.589 0 2.071-1.25h1.679l0.41 0.411 0.429 0.839v0.839m5.625 40.842h7.59m-29.073 3.732-1.25-0.411-0.84-1.25-0.428-2.089v-1.25l0.428-2.09 0.84-1.25 1.25-0.411h0.821l1.268 0.411 0.822 1.25 0.428 2.09v1.25l-0.428 2.089-0.822 1.25-1.268 0.411h-0.821l-0.839-0.411-0.411-0.428-0.429-0.822-0.411-2.089v-1.25l0.411-2.09 0.429-0.839 0.411-0.411 0.839-0.411m0.821 0 0.84 0.411 0.428 0.411 0.411 0.839 0.411 2.09v1.25l-0.411 2.089-0.411 0.822-0.428 0.428-0.84 0.411m5.858-7.929-0.429-0.411 0.429-0.411 0.411 0.411-0.411 0.411m5.839 7.929-1.249-0.411-0.84-1.25-0.411-2.089v-1.25l0.411-2.09 0.84-1.25 1.249-0.411h0.822l1.268 0.411 0.821 1.25 0.429 2.09v1.25l-0.429 2.089-0.821 1.25-1.268 0.411h-0.822l-0.839-0.411-0.41-0.428-0.429-0.822-0.411-2.089v-1.25l0.411-2.09 0.429-0.839 0.41-0.411 0.839-0.411m0.822 0 0.839 0.411 0.429 0.411 0.411 0.839 0.41 2.09v1.25l-0.41 2.089-0.411 0.822-0.429 0.428-0.839 0.411m8.143 34.181h7.59m-29.073 3.732-1.25-0.411-0.84-1.25-0.428-2.089v-1.25l0.428-2.09 0.84-1.25 1.25-0.428h0.821l1.268 0.428 0.822 1.25 0.428 2.09v1.25l-0.428 2.089-0.822 1.25-1.268 0.411h-0.821l-0.839-0.411-0.411-0.428-0.429-0.822-0.411-2.089v-1.25l0.411-2.09 0.429-0.839 0.411-0.411 0.839-0.428m0.821 0 0.84 0.428 0.428 0.411 0.411 0.839 0.411 2.09v1.25l-0.411 2.089-0.411 0.822-0.428 0.428-0.84 0.411m5.858-7.929-0.429-0.411 0.429-0.428 0.411 0.428-0.411 0.411m3.75 6.268 0.411-0.428-0.411-0.411-0.411 0.411v0.428l0.411 0.822 0.411 0.428 1.25 0.411h1.679l1.25-0.411 0.41-0.428 0.429-0.822v-0.839l-0.429-0.839-1.25-0.839-2.089-0.822-0.822-0.429-0.839-0.821-0.411-1.268v-1.25m3.751 8.768 0.839-0.411 0.411-0.428 0.41-0.822v-0.839l-0.41-0.839-1.25-0.839-1.679-0.822m-2.072-2.929 0.411 0.411h0.84l2.071-0.822h1.268l0.821 0.411 0.429 0.411m-4.589 0 2.071-1.25h1.679l0.41 0.428 0.429 0.822v0.839m5.625 40.86h7.59m-29.073 3.732-1.25-0.428-0.84-1.25-0.428-2.072v-1.268l0.428-2.072 0.84-1.267 1.25-0.411h0.821l1.268 0.411 0.822 1.267 0.428 2.072v1.268l-0.428 2.072-0.822 1.25-1.268 0.428h-0.821l-0.839-0.428-0.411-0.411-0.429-0.839-0.411-2.072v-1.268l0.411-2.072 0.429-0.839 0.411-0.428 0.839-0.411m0.821 0 0.84 0.411 0.428 0.428 0.411 0.839 0.411 2.072v1.268l-0.411 2.072-0.411 0.839-0.428 0.411-0.84 0.428m5.858-7.929-0.429-0.428 0.429-0.411 0.411 0.411-0.411 0.428m7.09 7.09v-7.929m0.41 8.768v-8.768m0 8.768-4.589-6.268h6.679m-3.751-2.5h2.911m6.054-165.56h3.786m-3.786 9.483h3.786m-3.786 18.947h3.786m-3.786 9.483h3.786m-3.786 9.482h3.786m-3.786 18.948h3.786m-3.786 9.482h3.786m-3.786 9.465h3.786m-3.786 18.965h3.786m-3.786 9.465h3.786m-3.786 9.483h3.786m-3.786 18.965h3.786m-3.786 9.465h3.786m-3.786 9.483h3.786m-3.786 18.948h3.786m-3.786 9.482h3.786m-57.199-108.86 5.839 2.499m-5.839-2.071 5 2.071m-5 2.518 5.839-2.518 2.09-0.821 0.839-0.839 0.411-0.839v-0.412l-0.411-0.429-0.429 0.429 0.429 0.412m-8.768-0.841v2.519m0 1.661v2.499m6.071 3.947-0.518 0.25h1.036l-0.518-0.25-0.268-0.268-0.25-0.518v-1.035l0.25-0.518 0.268-0.251h0.518l0.25 0.251 0.25 0.518 0.518 1.303 0.268 0.518 0.25 0.25m-1.804-2.84 0.268 0.251 0.25 0.518 0.518 1.303 0.25 0.518 0.268 0.25h0.768l0.268-0.25 0.25-0.518v-1.036l-0.25-0.518-0.268-0.267-0.518-0.251h1.036l-0.518 0.251m-13.233 11.554 13.769-7.518m-8.769 12.108 5.429-1.661m-5.429 1.661 5.429-1.25m-5.429 3.75h5.429m-5.429 0 5.429 0.428m-4.589-5.857-0.84 0.839-0.41 1.251v5.428m1.25-7.518-0.411 0.839-0.429 1.251v5.428m432.1-108.86v189.55m0-170.6h-7.572m7.572 37.913h-7.572m7.572 37.913h-7.572m7.572 37.913h-7.572m7.572 37.913h-7.572m7.572-170.6h-3.786m3.786 9.483h-3.786m3.786 18.947h-3.786m3.786 9.483h-3.786m3.786 9.482h-3.786m3.786 18.948h-3.786m3.786 9.482h-3.786m3.786 9.465h-3.786m3.786 18.965h-3.786m3.786 9.465h-3.786m3.786 9.483h-3.786m3.786 18.965h-3.786m3.786 9.465h-3.786m3.786 9.483h-3.786m3.786 18.948h-3.786m3.786 9.482h-3.786" clip-path="url(#d)" stroke-width=".315"/>
    <path d="m138.56 604.52 47.396-47.395m-47.396 142.13 47.396 47.414m-47.396-47.378 142.17-142.17m-142.17 47.377 142.17 142.17m-94.773 0 189.55-189.55m-189.55 0 189.55 189.55m-94.773 0 189.55-189.55m-189.55 0 189.55 189.55m-94.773 0 142.15-142.15m-142.15-47.395 142.15 142.15m-47.378 47.395 47.378-47.378m-47.378-142.17 47.378 47.377" clip-path="url(#e)" stroke-width=".536"/>
    <path d="m292.56 653.88 1.982-1.983-1.982-1.982-1.982 1.982 1.982 1.983m11.839 11.839 1.983-1.982-1.983-1.982-1.982 1.982 1.982 1.982m11.858 11.858 1.983-1.982-1.983-1.982-1.982 1.982 1.982 1.982m11.841 11.84 1.982-1.983-1.982-1.982-1.982 1.982 1.982 1.983m-23.699-47.378 1.983-1.982-1.983-1.983-1.982 1.983 1.982 1.982m11.858 11.841 1.983-1.983-1.983-1.982-1.982 1.982 1.982 1.983m11.841 11.839 1.982-1.982-1.982-1.982-1.982 1.982 1.982 1.982m11.858 11.858 1.981-1.982-1.981-1.982-1.982 1.982 1.982 1.982m-23.699-47.396 1.983-1.982-1.983-1.982-1.982 1.982 1.982 1.982m11.841 11.858 1.982-1.982-1.982-1.983-1.982 1.983 1.982 1.982m11.858 11.841 1.981-1.983-1.981-1.982-1.982 1.982 1.982 1.983m11.839 11.839 1.983-1.982-1.983-1.982-1.982 1.982 1.982 1.982m-23.697-47.377 1.982-1.983-1.982-1.982-1.982 1.982 1.982 1.983m11.858 11.839 1.981-1.982-1.981-1.982-1.982 1.982 1.982 1.982m11.839 11.858 1.983-1.982-1.983-1.983-1.982 1.983 1.982 1.982m11.84 11.841 1.982-1.983-1.982-1.982-1.983 1.982 1.983 1.983m-118.45 47.394 1.982-1.982-1.982-1.982-1.982 1.982 1.982 1.982m11.84 11.841 1.982-1.982-1.982-1.982-1.982 1.982 1.982 1.982m11.84 11.84 1.982-1.983-1.982-1.982-1.982 1.982 1.982 1.983m11.858 11.858 1.982-1.983-1.982-1.982-1.983 1.982 1.983 1.983m-23.698-47.396 1.982-1.983-1.982-1.982-1.982 1.982 1.982 1.983m11.84 11.857 1.982-1.982-1.982-1.982-1.982 1.982 1.982 1.982m11.858 11.841 1.982-1.982-1.982-1.982-1.983 1.982 1.983 1.982m11.84 11.84 1.982-1.983-1.982-1.982-1.982 1.982 1.982 1.983m-23.698-47.378 1.982-1.982-1.982-1.982-1.982 1.982 1.982 1.982m11.858 11.84 1.982-1.983-1.982-1.982-1.983 1.982 1.983 1.983m11.84 11.857 1.982-1.982-1.982-1.982-1.982 1.982 1.982 1.982m11.839 11.841 1.983-1.982-1.983-1.982-1.982 1.982 1.982 1.982m-23.679-47.396 1.982-1.982-1.982-1.982-1.983 1.982 1.983 1.982m11.84 11.858 1.982-1.982-1.982-1.982-1.982 1.982 1.982 1.982m11.839 11.84 1.983-1.983-1.983-1.982-1.982 1.982 1.982 1.983m11.858 11.857 1.983-1.982-1.983-1.982-1.982 1.982 1.982 1.982m23.699-94.772 1.981-1.983-1.981-1.982-1.982 1.982 1.982 1.983m11.839 11.84 1.983-1.983-1.983-1.982-1.982 1.982 1.982 1.983m11.84 11.839 1.982-1.982-1.982-1.982-1.983 1.982 1.983 1.982m11.858 11.858 1.982-1.982-1.982-1.983-1.983 1.983 1.983 1.982m-23.698-47.395 1.983-1.982-1.983-1.983-1.982 1.983 1.982 1.982m11.84 11.858 1.982-1.983-1.982-1.982-1.983 1.982 1.983 1.983m11.858 11.84 1.982-1.983-1.982-1.982-1.983 1.982 1.983 1.983m11.84 11.839 1.983-1.982-1.983-1.982-1.982 1.982 1.982 1.982m-23.698-47.377 1.982-1.982-1.982-1.983-1.983 1.983 1.983 1.982m11.858 11.84 1.982-1.982-1.982-1.983-1.983 1.983 1.983 1.982m11.84 11.858 1.983-1.983-1.983-1.982-1.982 1.982 1.982 1.983m11.84 11.84 1.982-1.983-1.982-1.982-1.982 1.982 1.982 1.983m-23.68-47.396 1.982-1.982-1.982-1.982-1.983 1.982 1.983 1.982m11.84 11.858 1.983-1.982-1.983-1.983-1.982 1.983 1.982 1.982m11.84 11.84 1.982-1.982-1.982-1.983-1.982 1.983 1.982 1.982m11.858 11.858 1.982-1.983-1.982-1.982-1.982 1.982 1.982 1.983" clip-path="url(#f)" stroke-width=".357"/>
   </g>
   <g stroke-width=".315">
    <path d="m233.33 604.52v94.773l47.396 47.378m-47.396-142.15 47.396-47.395m-31.591 47.395v94.773l31.591 47.378m-31.591-142.15 31.591-47.395m-15.805 47.395v94.773l15.805 47.378m-15.805-142.15 15.805-47.395m0 47.395v142.15m0-142.15v-47.395m15.786 47.395v94.773l-15.786 47.378m15.786-142.15-15.786-47.395m31.591 47.395v94.773l-31.591 47.378m31.591-142.15-31.591-47.395m47.378 47.395v94.773l-47.378 47.378m47.378-142.15-47.378-47.395m47.378 47.395v94.773l47.395 47.378m-47.395-142.15 47.395-47.395m-31.591 47.395v94.773l31.591 47.378m-31.591-142.15 31.591-47.395m-15.804 47.395v94.773l15.804 47.378m-15.804-142.15 15.804-47.395m0 47.395v142.15m0-142.15v-47.395m15.786 47.395v94.773l-15.786 47.378m15.786-142.15-15.786-47.395m31.59 47.395v94.773l-31.59 47.378m31.59-142.15-31.59-47.395m47.377 47.395v94.773l-47.377 47.378m47.377-142.15-47.377-47.395" clip-path="url(#g)" stroke-dasharray="3.572, 3.572"/>
    <path d="m138.56 699.3h379.09m-379.09-94.773h379.09" clip-path="url(#h)" stroke-dasharray="0.714, 1.786"/>
    <path d="m138.56 651.9h379.09" clip-path="url(#i)" stroke-dasharray="3.572, 1.786, 0.893, 1.786"/>
   </g>
  </g>
  <path d="m178.02 690.74h15.858v15.858h-15.858z" clip-path="url(#j)" fill="#fff"/>
  <path d="m185.11 704.26-1.25-0.411-0.839-1.25-0.411-2.089v-1.251l0.411-2.089 0.839-1.25 1.25-0.428h0.84l1.25 0.428 0.821 1.25 0.429 2.089v1.251l-0.429 2.089-0.821 1.25-1.25 0.411h-0.84l-0.839-0.411-0.411-0.428-0.428-0.822-0.411-2.089v-1.251l0.411-2.089 0.428-0.839 0.411-0.411 0.839-0.428m0.84 0 0.821 0.428 0.429 0.411 0.411 0.839 0.41 2.089v1.251l-0.41 2.089-0.411 0.822-0.429 0.428-0.821 0.411" clip-path="url(#k)" fill="none" stroke="#231f20" stroke-miterlimit="2.5" stroke-width=".357"/>
  <path d="m272.8 690.74h15.858v15.858h-15.858z" clip-path="url(#l)" fill="#fff"/>
  <path d="m278.64 702.6 0.84 0.411 1.25 1.25v-8.768m-0.429 8.357v-8.357m-1.661 0h3.751" clip-path="url(#m)" fill="none" stroke="#231f20" stroke-miterlimit="2.5" stroke-width=".357"/>
  <path d="m367.57 690.74h15.858v15.858h-15.858z" clip-path="url(#n)" fill="#fff"/>
  <path d="m372.57 702.6 0.411-0.428-0.411-0.411-0.411 0.411v0.428l0.411 0.822 0.411 0.428 1.268 0.411h1.661l1.25-0.411 0.411-0.428 0.428-0.822v-0.839l-0.428-0.839-1.25-0.84-2.072-0.822-0.84-0.428-0.839-0.822-0.411-1.267v-1.25m3.751 8.768 0.839-0.411 0.411-0.428 0.411-0.822v-0.839l-0.411-0.839-1.25-0.84-1.661-0.822m-2.09-2.928 0.411 0.411h0.839l2.09-0.822h1.25l0.822 0.411 0.428 0.411m-4.59 0 2.09-1.25h1.661l0.411 0.428 0.428 0.822v0.839" clip-path="url(#o)" fill="none" stroke="#231f20" stroke-miterlimit="2.5" stroke-width=".357"/>
  <path d="m462.34 690.74h15.858v15.858h-15.858z" clip-path="url(#p)" fill="#fff"/>
  <path d="m467.34 702.6 0.409-0.428-0.409-0.411-0.411 0.411v0.428l0.411 0.822 0.409 0.428 1.269 0.411h1.661l1.25-0.411 0.41-0.839v-1.25l-0.41-0.839-1.25-0.411h-1.25m1.25 3.75 0.839-0.411 0.411-0.839v-1.25l-0.411-0.839-0.839-0.411 0.839-0.429 0.821-0.822 0.43-0.839v-1.25l-0.43-0.839-0.41-0.411-1.25-0.428h-1.661l-1.269 0.428-0.409 0.411-0.411 0.839v0.411l0.411 0.428 0.409-0.428-0.409-0.411m4.589 2.5 0.41-1.25v-1.25l-0.41-0.839-0.411-0.411-0.839-0.428" clip-path="url(#q)" fill="none" stroke="#231f20" stroke-miterlimit="2.5" stroke-width=".357"/>
  <path d="m225.4 643.35h15.858v15.858h-15.858z" clip-path="url(#r)" fill="#fff"/>
  <path d="m230.83 656.88-0.839-4.179 0.839 0.839 1.25 0.411h1.25l1.25-0.411 0.84-0.839 0.41-1.25v-0.839l-0.41-1.251-0.84-0.839-1.25-0.411h-1.25l-1.25 0.411-0.411 0.429-0.428 0.821v0.429l0.428 0.411 0.411-0.411-0.411-0.429m2.911 4.179 0.84-0.411 0.839-0.839 0.411-1.25v-0.839l-0.411-1.251-0.839-0.839-0.84-0.411m-2.5 8.769h4.179m-4.179-0.429h2.09l2.089 0.429" clip-path="url(#s)" fill="none" stroke="#231f20" stroke-miterlimit="2.5" stroke-width=".357"/>
  <path d="m320.17 643.35h15.858v15.858h-15.858z" clip-path="url(#t)" fill="#fff"/>
  <path d="m329.78 655.62-0.428-0.41 0.428-0.411 0.411 0.411v0.41l-0.411 0.84-0.839 0.429h-1.25l-1.25-0.429-0.839-0.84-0.411-0.821-0.429-1.678v-2.5l0.429-1.251 0.822-0.839 1.249-0.411h0.84l1.25 0.411 0.839 0.839 0.41 1.251v0.409l-0.41 1.269-0.839 0.822-1.25 0.428h-0.411l-1.25-0.428-0.839-0.822-0.411-1.269m2.5 5.859-0.839-0.429-0.839-0.84-0.411-0.821-0.411-1.678v-2.5l0.411-1.251 0.839-0.839 0.821-0.411m0.84 0 0.839 0.411 0.839 0.839 0.411 1.251v0.409l-0.411 1.269-0.839 0.822-0.839 0.428" clip-path="url(#u)" fill="none" stroke="#231f20" stroke-miterlimit="2.5" stroke-width=".357"/>
  <path d="m414.95 643.35h15.858v15.858h-15.858z" clip-path="url(#v)" fill="#fff"/>
  <path d="m419.54 656.88v-2.519m0 0.84 0.429 0.839 0.821 0.84h0.839l2.089-1.269h0.841l0.41 0.429 0.411 0.84m-5.411-0.84 0.821 0.411h0.839l2.089-0.84m1.662 1.269v-1.269l-0.411-1.25-1.66-2.071-0.43-0.839-0.411-1.25v-2.09m2.501 6.25-2.09-2.071-0.411-0.839-0.428-1.25v-2.09" clip-path="url(#w)" fill="none" stroke="#231f20" stroke-miterlimit="2.5" stroke-width=".357"/>
  <path d="m143.9 643.35h15.858v15.858h-15.858z" clip-path="url(#x)" fill="#fff"/>
  <path d="m152.24 656.04v-7.929m0.428 8.769v-8.769m0 8.769-4.589-6.268h6.679m-3.769-2.501h2.929" clip-path="url(#y)" fill="none" stroke="#231f20" stroke-miterlimit="2.5" stroke-width=".357"/>
  <path d="m496.45 643.35h15.858v15.858h-15.858z" clip-path="url(#z)" fill="#fff"/>
  <path d="m504.81 656.04v-7.929m0.411 8.769v-8.769m0 8.769-4.59-6.268h6.679m-3.769-2.501h2.93" clip-path="url(#aa)" fill="none" stroke="#231f20" stroke-miterlimit="2.5" stroke-width=".357"/>
  <path d="m178.02 595.97h15.858v15.858h-15.858z" clip-path="url(#ab)" fill="#fff"/>
  <path d="m184.7 609.49-1.268-0.411-0.411-0.839v-1.25l0.411-0.84 1.268-0.41h1.661l1.25 0.41 0.41 0.84v1.25l-0.41 0.839-1.25 0.411h-1.661l-0.84-0.411-0.428-0.839v-1.25l0.428-0.84 0.84-0.41m1.661 0 0.839 0.41 0.411 0.84v1.25l-0.411 0.839-0.839 0.411m-1.661-3.75-1.268-0.429-0.411-0.411-0.411-0.839v-1.661l0.411-0.839 0.411-0.411 1.268-0.428h1.661l1.25 0.428 0.41 0.411 0.429 0.839v1.661l-0.429 0.839-0.41 0.411-1.25 0.429m-1.661 0-0.84-0.429-0.428-0.411-0.411-0.839v-1.661l0.411-0.839 0.428-0.411 0.84-0.428m1.661 0 0.839 0.428 0.411 0.411 0.41 0.839v1.661l-0.41 0.839-0.411 0.411-0.839 0.429" clip-path="url(#ac)" fill="none" stroke="#231f20" stroke-miterlimit="2.5" stroke-width=".357"/>
  <path d="m272.8 595.97h15.858v15.858h-15.858z" clip-path="url(#ad)" fill="#fff"/>
  <path d="m282.8 606.56-0.41-1.25-0.84-0.821-1.25-0.429h-0.41l-1.251 0.429-0.839 0.821-0.411 1.25v0.429l0.411 1.25 0.839 0.839 1.251 0.411h0.839l1.25-0.411 0.821-0.839 0.429-1.25v-2.5l-0.429-1.679-0.41-0.839-0.84-0.822-1.25-0.428h-1.25l-0.839 0.428-0.411 0.822v0.428l0.411 0.411 0.428-0.411-0.428-0.428m1.679 2.089-0.84 0.429-0.839 0.821-0.411 1.25v0.429l0.411 1.25 0.839 0.839 0.84 0.411m0.839 0 0.821-0.411 0.84-0.839 0.41-1.25v-2.5l-0.41-1.679-0.411-0.839-0.84-0.822-0.839-0.428" clip-path="url(#ae)" fill="none" stroke="#231f20" stroke-miterlimit="2.5" stroke-width=".357"/>
  <path d="m367.57 595.97h15.858v15.858h-15.858z" clip-path="url(#af)" fill="#fff"/>
  <path d="m369.23 607.83 0.839 0.411 1.25 1.25v-8.768m-0.411 8.357v-8.357m-1.678 0h3.75m5.857 8.768-1.267-0.411-0.822-1.25-0.428-2.089v-1.25l0.428-2.09 0.822-1.25 1.267-0.428h0.822l1.25 0.428 0.839 1.25 0.429 2.09v1.25l-0.429 2.089-0.839 1.25-1.25 0.411h-0.822l-0.839-0.411-0.428-0.428-0.411-0.822-0.411-2.089v-1.25l0.411-2.09 0.411-0.839 0.428-0.411 0.839-0.428m0.822 0 0.839 0.428 0.411 0.411 0.428 0.839 0.411 2.09v1.25l-0.411 2.089-0.428 0.822-0.411 0.428-0.839 0.411" clip-path="url(#ag)" fill="none" stroke="#231f20" stroke-miterlimit="2.5" stroke-width=".357"/>
  <path d="m462.34 595.97h15.858v15.858h-15.858z" clip-path="url(#ah)" fill="#fff"/>
  <path d="m464 607.83 0.839 0.411 1.251 1.25v-8.768m-0.411 8.357v-8.357m-1.679 0h3.749m4.59 7.107 0.84 0.411 1.249 1.25v-8.768m-0.409 8.357v-8.357m-1.68 0h3.769" clip-path="url(#ai)" fill="none" stroke="#231f20" stroke-miterlimit="2.5" stroke-width=".357"/>
 </g>
</svg>
