<svg width="72" height="39.994" enable-background="new 184.629 85.914 55.276 55.276" version="1.1"
     viewBox="184.63 85.914 72 39.994" xml:space="preserve" xmlns="http://www.w3.org/2000/svg"><defs><radialGradient id="a" cx="1981.3" cy="-1309.8" r="212.81" gradientTransform="matrix(.1616 0 0 -.1616 -102.14 -104.89)" gradientUnits="userSpaceOnUse">
		<stop stop-color="#456587" offset="0"/>
		<stop stop-color="#2C4F73" offset=".2555"/>
		<stop stop-color="#0C395D" offset=".5931"/>
		<stop stop-color="#002D50" offset=".8524"/>
		<stop stop-color="#00294B" offset="1"/>
	</radialGradient></defs>
    <g transform="matrix(.72826 0 0 .72826 50.171 23.346)"><path d="m234.72 140.73c-0.37549-0.11545-0.72318-0.47295-0.88782-0.91296-0.30001-0.80184-0.29834-2.2529 4e-3 -3.0632 0.16776-0.45044 0.58446-0.89235 0.93215-0.9886 0.30796-0.0853 0.777-0.0854 1.0863-7.1e-4 0.3178 0.0874 0.70838 0.49539 0.83838 0.87595 0.11506 0.33672 0.25185 1.4157 0.19749 1.5574-0.0315 0.082-0.2143 0.0946-1.371 0.0946h-1.3347l0.0392 0.4677c0.0967 1.1495 0.51387 1.6882 1.2067 1.5582 0.39331-0.0737 0.70801-0.4689 0.79204-0.99446l0.0394-0.24691h0.59765l-0.0392 0.19612c-0.15674 0.78383-0.53931 1.3042-1.076 1.4636-0.37343 0.11092-0.64684 0.10904-1.0242-8e-3zm1.5102-3.3648c-0.0598-0.79068-0.38108-1.184-0.96745-1.1845-0.65901-6.9e-4 -0.91646 0.33413-1.0328 1.3425l-0.033 0.28665h2.067zm2.068 3.3439c-0.52626-0.18124-0.71912-0.4765-0.81955-1.2546l-0.0409-0.31684h0.61903l2e-3 0.22632c2e-3 0.29584 0.19012 0.70376 0.38358 0.83052 0.37874 0.24815 0.99635 0.16036 1.2993-0.18472 0.15762-0.1795 0.18653-0.26132 0.18634-0.52721-2e-4 -0.36605-0.14925-0.65641-0.40446-0.78825-0.0927-0.0478-0.41198-0.18517-0.7094-0.30507-0.29744-0.11984-0.64314-0.28571-0.76826-0.36849-0.59793-0.3957-0.6422-1.3833-0.087-1.9386 0.28999-0.28999 0.56642-0.38406 1.1244-0.38264 0.8024 3e-3 1.1909 0.35865 1.3018 1.1952l0.0413 0.31187h-0.61904v-0.21316c0-0.52518-0.29471-0.81276-0.83295-0.81276-0.58476 0-0.94795 0.46326-0.79846 1.0184 0.0825 0.30661 0.3046 0.47846 0.90723 0.7022 0.9639 0.35786 1.2428 0.57699 1.3818 1.0856 0.0893 0.32715 0.0837 0.49415-0.0303 0.87752-0.23698 0.79801-1.1842 1.1727-2.136 0.84483zm5.919-0.0414c-0.54633-0.27226-0.80188-0.80997-0.91542-1.9263-0.0761-0.74679 7e-3 -1.673 0.19406-2.178 0.27494-0.74059 0.90581-1.0954 1.6406-0.92287 0.23858 0.0559 0.3739 0.13636 0.56942 0.33806l0.2565 0.26457v-2.1143h1.0259v6.578h-0.96557v-0.56124l-0.1749 0.24143c-0.33101 0.45696-1.0342 0.57803-1.6306 0.28078zm1.3699-0.78124c0.0791-0.0519 0.18463-0.19165 0.23432-0.31056 0.14637-0.35031 0.21379-1.2655 0.14362-1.9494-0.0908-0.88452-0.25906-1.1401-0.7838-1.1906-0.27022-0.026-0.31704-0.0113-0.47769 0.14934-0.098 0.098-0.20786 0.28461-0.24419 0.41477-0.18628 0.66731-0.12597 2.2499 0.10074 2.6428 0.21431 0.37144 0.66781 0.47902 1.027 0.24362zm3.3178 0.8551c-0.48484-0.17305-0.7478-0.4563-0.96202-1.0363-0.11531-0.31218-0.13214-0.4835-0.13575-1.3823-4e-3 -0.91082 0.0113-1.0758 0.13539-1.47 0.26057-0.82949 0.82145-1.2457 1.6695-1.2389 0.63175 5e-3 0.92028 0.10715 1.2424 0.43957 0.33823 0.34906 0.45485 0.72349 0.51426 1.6508l0.0416 0.64874h-2.6115v0.42589c0 0.55781 0.0971 0.92403 0.3034 1.1449 0.14399 0.15414 0.21127 0.17928 0.47983 0.17928 0.26236 0 0.33963-0.0273 0.48303-0.17071 0.16797-0.16796 0.30181-0.51303 0.30246-0.77978 7e-4 -0.12967 0.0225-0.13578 0.49153-0.13578h0.4912l-0.0371 0.31317c-0.0808 0.68168-0.50949 1.2347-1.092 1.4085-0.36661 0.10941-1.0139 0.11079-1.3162 3e-3zm1.4369-3.4802c-0.0524-0.46301-0.17916-0.73154-0.40962-0.86767-0.21877-0.12923-0.59956-0.0959-0.78455 0.0684-0.19109 0.1699-0.34609 0.56242-0.34756 0.88017l-2e-3 0.28664h1.5846zm2.4399 3.4347c-0.20677-0.10665-0.30757-0.21214-0.42244-0.44187l-0.15087-0.30175-0.018-2.1298-0.018-2.1298 1.0015 0.0352 0.0302 2.012 0.0301 2.012 0.1401 0.11343c0.33031 0.26731 0.84716 0.1735 1.1233-0.20393 0.11871-0.16218 0.12536-0.26049 0.14212-2.0693l0.0176-1.8991 0.49543 0.0174 0.49542 0.0175 0.0159 2.4894 0.0157 2.4894h-0.96691v-0.56166l-0.21404 0.22038c-0.30553 0.3146-0.54195 0.41764-1.0231 0.44589-0.35466 0.0209-0.46602 3e-3 -0.69401-0.11531zm28.239 0.0742c-0.63802-0.1936-0.96204-0.66583-0.96204-1.4021v-0.29079h0.90521v0.23239c0 0.57302 0.21719 0.79353 0.78146 0.79353 0.31411 0 0.38931-0.0232 0.55575-0.17198 0.16672-0.14896 0.19309-0.21297 0.19708-0.47824 8e-3 -0.48286-0.11581-0.59799-0.98267-0.91934-0.40367-0.14964-0.83158-0.34998-0.9509-0.44519-0.30029-0.2396-0.44295-0.58195-0.44295-1.063 0-0.92962 0.55756-1.4045 1.658-1.4121 0.4782-4e-3 0.58614 0.0168 0.89021 0.16552 0.43528 0.21296 0.64369 0.53392 0.69189 1.0655l0.0329 0.36212h-0.98234v-0.18702c0-0.57292-0.51905-0.8898-1.0271-0.62706-0.22505 0.11644-0.30054 0.26071-0.30054 0.57468 0 0.36462 0.2008 0.52291 1.0322 0.81364 0.57417 0.20077 0.73382 0.28527 0.96749 0.51203 0.22483 0.21817 0.29306 0.33444 0.34705 0.59137 0.0887 0.42217 0.0851 0.53275-0.0295 0.92148-0.13349 0.45248-0.48233 0.7841-0.96821 0.92044-0.37179 0.10426-1.1359 0.12817-1.4129 0.0441zm-51.172-3.3524v-3.289h0.60348v6.0326l2.7459 0.0324 0.0186 0.25647 0.0186 0.2565h-3.3864zm26.312 3.256c0-0.0181 0.2992-0.59924 0.66488-1.2913l0.66491-1.2583-0.60488-1.1186c-0.33268-0.61522-0.62122-1.1611-0.64119-1.2132-0.0313-0.0817 0.0394-0.0946 0.51663-0.0946h0.5529l0.14212 0.31684c0.0782 0.17425 0.25029 0.54503 0.3825 0.82395l0.24041 0.50711 0.82757-1.6177 0.52804-0.0174c0.29043-0.01 0.52804-7.2e-4 0.52804 0.0198 0 0.0205-0.2861 0.56627-0.6358 1.2127l-0.63583 1.1754 0.66993 1.2941 0.66989 1.2941h-1.0997l-0.43473-0.90656-0.43473-0.90657-0.4184 0.90657-0.41843 0.90656h-0.53206c-0.29265 0-0.53207-0.0149-0.53207-0.0331zm6.5924-2.4564 0.0159-2.4894 0.49786-0.0174 0.49789-0.0176v5.0138h-1.0273zm2.0374-0.0176v-2.507l0.9354 0.0352 0.0301 0.27156c0.0202 0.18222 0.0441 0.23761 0.0727 0.16838 0.0752-0.18255 0.5302-0.46142 0.86721-0.53139 0.41368-0.0859 0.91846 8e-3 1.1663 0.21632 0.37246 0.3134 0.39233 0.44491 0.41629 2.7568l0.0217 2.0971h-1.0355l-3e-3 -1.735c-2e-3 -0.95426-0.026-1.8564-0.0546-2.0048-0.13319-0.69039-0.95984-0.75445-1.3168-0.10201-0.091 0.16647-0.10689 0.42377-0.1241 2.0163l-0.0197 1.8255h-0.95626v-2.507zm4.7072 0.39482v-2.1122h-0.72994l0.018-0.37718 0.018-0.37717 0.67881-0.0358 0.0272-0.47159c0.0295-0.5089 0.14413-0.7827 0.41033-0.97974 0.19595-0.14505 0.79666-0.25379 1.1278-0.20413l0.26024 0.039v0.77713h-0.27156c-0.37593 0-0.51297 0.1451-0.51297 0.54314v0.30174h0.78453v0.78453h-0.78453v4.2244h-1.0259zm2.3076-0.37719 0.0159-2.4894 0.99575-0.0352v5.0138h-1.0273zm1.9915 0 0.0159-2.4894 0.93539-0.0352v0.57269l0.22631-0.21632c0.27875-0.26646 0.40498-0.33265 0.79327-0.41592 0.66732-0.14311 1.2762 0.15652 1.4419 0.7096 0.0511 0.17048 0.0731 0.86527 0.0731 2.304v2.0599h-1.0259v-1.904c0-1.5802-0.0155-1.934-0.0912-2.0802-0.11344-0.21944-0.26034-0.30053-0.54432-0.30053-0.30419 0-0.55176 0.16254-0.69348 0.45526-0.11078 0.22881-0.11946 0.37643-0.11946 2.0381v1.7914h-1.0273zm4.4658 0 0.0159-2.4894 0.99575-0.0352v5.0138h-1.0272zm-15.511-3.6812 0.0176-0.49788 0.49788-0.0176 0.49787-0.0175v1.0308h-1.0308zm9.0522 0 0.0176-0.49788 0.49786-0.0176 0.49789-0.0175v1.0308h-1.0308zm6.4573 0 0.0175-0.49788 0.49788-0.0176 0.49788-0.0175v1.0308h-1.0308zm-2.6847-3.6094c-1.7606-0.24354-2.7356-1.3478-2.8608-3.2401l-0.0369-0.55822h2.0092l7.1e-4 0.34699c3e-3 1.2173 0.67934 2.0065 1.7192 2.0047 0.9101-2e-3 1.4835-0.50894 1.6932-1.4981 0.21257-1.003 0.01-2.1523-0.46711-2.6449-0.33345-0.34461-0.70427-0.46006-1.5731-0.48981l-0.76944-0.0264v-1.4341l0.37717-7.1e-4c0.48239-7e-4 1.0994-0.10049 1.3178-0.21347 0.51813-0.26792 0.83363-0.88079 0.88401-1.7172 0.0571-0.94808-0.20969-1.6183-0.76854-1.9304-0.22401-0.12511-0.35114-0.15139-0.72591-0.15013-0.3832 2e-3 -0.49791 0.027-0.73272 0.16466-0.15725 0.0922-0.35839 0.2839-0.4622 0.44064-0.19405 0.29297-0.3724 0.94015-0.3724 1.3513v0.24457h-2.0082l0.0415-0.46771c0.0841-0.94441 0.36804-1.6643 0.86991-2.2047 0.61762-0.66504 1.348-0.94659 2.5778-0.99361 0.66325-0.0253 0.86442-0.0101 1.278 0.0939 0.68018 0.17201 1.1312 0.40692 1.5282 0.796 0.96991 0.95047 1.1719 2.7721 0.44603 4.0229-0.2999 0.51676-0.76625 0.88378-1.4444 1.1368-0.096 0.0357-0.0593 0.0599 0.18103 0.11845 0.4999 0.12173 0.74165 0.25326 1.1088 0.60342 0.61118 0.58296 0.85991 1.2744 0.86071 2.3926 8.2e-4 1.3049-0.34995 2.2735-1.0665 2.9438-0.44058 0.41215-0.83703 0.62142-1.4943 0.78882-0.56022 0.14268-1.5423 0.19837-2.1109 0.11972zm-34.582-0.21627c-0.0229-0.0229-0.0416-2.9429-0.0416-6.4888v-6.4472h2.1127l-0.0308 12.945-0.99939 0.0164c-0.54964 9e-3 -1.0181-3e-3 -1.041-0.0251zm4.1038 5e-5c-0.023-0.023-0.0417-2.9435-0.0417-6.4901v-6.4484l2.5557 0.0326 1.8452 4.7403 1.8452 4.7403 0.0155-4.7554 0.0155-4.7554h1.9908v12.975h-2.4762l-0.0911-0.19613c-0.0501-0.10791-0.90403-2.3415-1.8977-4.9636l-1.8067-4.7675-0.0174 4.9486-0.0174 4.9486-0.93894 0.0165c-0.51643 9e-3 -0.95773-3e-3 -0.98067-0.0251zm9.8896-0.0151c-0.0643-0.10414 0.0997-1.366 0.24102-1.8537 0.40324-1.3915 1.02-2.2195 2.8043-3.7654 1.7886-1.5495 2.2266-2.2433 2.2787-3.6098 0.0394-1.0347-0.17481-1.5823-0.75199-1.9216-0.25958-0.15259-0.34724-0.171-0.80429-0.16893-0.40698 2e-3 -0.56462 0.0295-0.76297 0.1337-0.57972 0.30466-0.89792 0.95213-0.97681 1.9876l-0.0406 0.53174h-1.9311l0.0135-0.54313c0.0247-0.99066 0.36476-1.9708 0.88231-2.5433 0.63485-0.70229 1.373-0.98797 2.6681-1.0326 0.72717-0.0251 0.91995-0.0113 1.3502 0.0976 0.71545 0.18092 1.104 0.37742 1.5077 0.76255 0.63523 0.6059 0.97084 1.4836 0.97084 2.5391 0 1.7364-0.64054 2.9458-2.2932 4.3298-1.2496 1.0464-1.7079 1.465-1.9838 1.8121-0.33757 0.42466-0.60288 0.86026-0.74993 1.2314l-0.10162 0.25647h5.189v1.8104h-3.738c-2.1301 0-3.7524-0.0232-3.7714-0.0538zm9.1804 0.0151c-0.0229-0.0229-0.0417-2.9429-0.0417-6.4888v-6.4472l2.3385 8.1e-4c2.5703 8.2e-4 2.8568 0.0299 3.5558 0.357 0.43178 0.20206 0.95454 0.66546 1.221 1.0824 0.0982 0.15373 0.25261 0.49678 0.34299 0.7623 0.21799 0.64042 0.27726 1.9367 0.12073 2.6403-0.28333 1.2735-1.0788 2.1614-2.2938 2.5601-0.45383 0.14893-0.58027 0.16184-1.8296 0.18694l-1.3421 0.0269-0.0316 5.3277-0.99937 0.0164c-0.54965 9e-3 -1.0181-3e-3 -1.041-0.0251zm4.5035-7.1326c0.74026-0.36442 1.0357-0.93597 1.0347-2.0015-7e-4 -0.87699-0.11871-1.2455-0.53016-1.6568-0.45561-0.45561-0.69554-0.52545-1.9266-0.56088l-1.0109-0.029v4.4936l1.0146-0.0232c1.0045-0.0231 1.0186-0.0252 1.4184-0.22205z" fill="#e65113" stroke-width=".060348"/>
        <path d="m210.72 85.96c-0.49-0.029-0.978-0.046-1.46-0.046-6.745-8e-3 -12.854 2.863-18.176 8.556-4.84 5.171-6.467 9.336-6.451 14.361 8e-3 2.688 0.485 5.625 1.191 9.097 1.328 6.526 5.201 12.824 10.629 17.285 4.153 3.412 8.786 5.158 13.67 5.19 2.529 0.016 5.125-0.426 7.759-1.334 8.499-2.933 16.631-11.332 19.771-20.423 0.994-2.876 1.477-5.678 1.469-8.342-0.025-6.513-3.002-12.221-8.685-16.302-6.898-4.955-13.53-7.659-19.717-8.042z"
              fill="url(#a)"/>
        <g transform="translate(-.68489 -.40898)">
		<path d="m201.7 113.66h-1.869l-3e-3 0.054c-0.016 0.364-0.231 3.542-3.076 3.542-2.542 0-3.833-2.278-3.835-6.771 2e-3 -4.492 1.293-6.771 3.835-6.771 2.893 0 3.068 3.396 3.076 3.542l3e-3 0.054h1.869c0.172 0 0.339-0.069 0.46-0.193 0.116-0.119 0.175-0.272 0.167-0.432-0.038-0.881-0.49-5.279-5.6-5.279-4.129 0-6.312 3.139-6.312 9.075 0 5.947 2.182 9.094 6.312 9.094 4.916 0 5.527-4.017 5.6-5.247 0.011-0.17-0.046-0.335-0.164-0.458-0.121-0.14-0.29-0.21-0.463-0.21z"
              fill="#fff"/>
            <path d="m230.74 109.4-1.607-0.7c-1.549-0.679-2.096-1.341-2.096-2.529 0-1.549 1.131-2.588 2.816-2.588 0.997 0 1.813 0.204 2.813 1.22l0.054 0.057 0.859-0.786c0.499-0.461 0.353-0.879 0.146-1.146-0.838-0.988-2.182-1.529-3.79-1.529-3.097 0-5.347 2.02-5.347 4.805 0 2.737 1.725 3.882 3.588 4.712l1.643 0.732c1.652 0.74 2.438 1.371 2.438 2.96 0 2.166-1.958 2.745-3.114 2.745-0.994 0-2.104-0.213-3.464-1.754l-0.054-0.062-0.895 0.786c-0.461 0.404-0.463 0.752-0.016 1.328 1.23 1.584 3.038 1.915 4.336 1.915 2.807 0 5.652-1.724 5.652-5.021 1e-3 -2.855-1.583-4.121-3.962-5.145z"
                  fill="#62c4dd"/>
            <path d="m214.87 106.59c0-2.804-2.274-5.18-5.078-5.18-1.32 0-2.521 0.504-3.424 1.328v-0.964h-1.688c-0.509 0-0.703 0.331-0.703 0.714v16.366c0 0.46 0.28 0.705 0.695 0.705h1.689v-12.87c0-1.691 1.371-3.063 3.063-3.063s3.063 1.371 3.063 3.063v12.873h1.678c0.466 0 0.706-0.259 0.706-0.703-1e-3 1e-3 -1e-3 -12.252-1e-3 -12.269z"
                  fill="#62c4dd"/>
            <path d="m224.55 102.63c0.089-0.111 0.143-0.248 0.143-0.399 0-0.282-0.183-0.517-0.437-0.604-0.487-0.164-1.01-0.253-1.551-0.253-1.32 0-2.521 0.504-3.424 1.328v-0.964h-1.689c-0.509 0-0.703 0.331-0.703 0.714v16.363c0 0.46 0.283 0.705 0.698 0.705h1.688v-12.869c0-1.692 1.371-3.063 3.063-3.063 0.442 0 0.862 0.098 1.242 0.265l0.975-1.226z"
                  fill="#fff"/>
	</g></g>
</svg>
