<?xml version="1.0" encoding="UTF-8" standalone="no"?>
<svg
   width="72"
   height="43.956"
   version="1.1"
   viewBox="0 0 72 43.956"
   xml:space="preserve"
   id="svg66"
   sodipodi:docname="logo_uga.svg"
   inkscape:version="1.1.2 (0a00cf5339, 2022-02-04)"
   xmlns:inkscape="http://www.inkscape.org/namespaces/inkscape"
   xmlns:sodipodi="http://sodipodi.sourceforge.net/DTD/sodipodi-0.dtd"
   xmlns="http://www.w3.org/2000/svg"
   xmlns:svg="http://www.w3.org/2000/svg"><defs
   id="defs70">
        
        
        
        
        
        
        
        
        
        
        
        
        
        
        
        
        
        
        
        
        
        
        
        
        
        
        </defs><sodipodi:namedview
   id="namedview68"
   pagecolor="#ffffff"
   bordercolor="#666666"
   borderopacity="1.0"
   inkscape:pageshadow="2"
   inkscape:pageopacity="0.0"
   inkscape:pagecheckerboard="0"
   showgrid="false"
   inkscape:zoom="16.357266"
   inkscape:cx="35.977895"
   inkscape:cy="21.978001"
   inkscape:window-width="1850"
   inkscape:window-height="1136"
   inkscape:window-x="70"
   inkscape:window-y="27"
   inkscape:window-maximized="1"
   inkscape:current-layer="g16" />
<style
   type="text/css"
   id="style2">
	.st0{fill:#2A2E46;}
	.st1{fill:#E84E0F;}
</style>
    <path
   class="st0"
   d="M 9.9999,21.90222 C 4.48776,21.90222 0,17.41446 0,11.85354 V 0 h 4.43898 v 11.85354 c 0,3.07314 2.48778,5.56092 5.56092,5.56092 3.07314,0 5.56092,-2.48778 5.56092,-5.56092 V 0 h 4.43898 v 11.85354 c 0,5.56092 -4.48776,10.04868 -9.9999,10.04868 z"
   id="path4"
   style="stroke-width:0.4878" /><g
   transform="matrix(0.4878,0,0,0.4878,-0.58536,-0.82926)"
   id="g8">
		<polygon
   class="st0"
   points="123.2,20 138.2,45.9 148.8,45.9 123.2,1.7 97.7,45.9 108.3,45.9 "
   id="polygon6" />
	</g><path
   class="st0"
   d="m 35.26794,22.297826 c -2.09754,0 -4.19508,-0.58536 -6.04872,-1.80486 -5.17068,-3.36582 -6.63408,-10.29258 -3.26826,-15.4144802 3.36582,-5.17068 10.2438,-6.63408 15.41448,-3.26826 l -2.439,3.75606 c -3.07314,-1.99998 -7.21944,-1.12194 -9.21942,1.9512 -1.99998,3.0731402 -1.12194,7.2194402 1.9512,9.2194202 3.07314,1.99998 7.21944,1.12194 9.21942,-1.9512 l 3.75606,2.439 c -2.1951,3.26826 -5.75604,5.07312 -9.36576,5.07312 z"
   id="path10"
   style="stroke-width:0.4878" /><rect
   class="st0"
   x="35.121601"
   y="8.932106"
   width="9.9023399"
   height="4.4389801"
   id="rect12"
   style="stroke-width:0.4878" /><g
   transform="matrix(0.4878,0,0,0.4878,-0.58536,-0.43384932)"
   id="g16">
		<polygon
   class="st1"
   points="134.1,58.5 123.2,39.7 112.4,58.5 "
   id="polygon14" />
	</g><path
   class="st0"
   d="M 0.7317,32.444066 C 0.2439,31.956266 0,31.370906 0,30.639206 v -3.95118 h 1.36584 v 3.9024 c 0,0.39024 0.09756,0.68292 0.34146,0.92682 0.2439,0.2439 0.53658,0.34146 0.87804,0.34146 0.34146,0 0.68292,-0.09756 0.92682,-0.34146 0.2439,-0.2439 0.34146,-0.53658 0.34146,-0.92682 v -3.9024 h 1.36584 v 3.95118 c 0,0.7317 -0.2439,1.36584 -0.7317,1.80486 -0.4878,0.4878 -1.12194,0.7317 -1.90242,0.7317 -0.7317,-0.04878 -1.36584,-0.2439 -1.85364,-0.7317 z"
   id="path18"
   style="stroke-width:0.4878" /><path
   class="st0"
   d="m 10.7316,28.541666 c 0.34146,0.39024 0.4878,0.87804 0.4878,1.51218 v 2.97558 H 9.90234 v -2.78046 c 0,-0.7317 -0.29268,-1.12194 -0.82926,-1.12194 -0.2439,0 -0.43902,0.04878 -0.58536,0.14634 -0.14634,0.09756 -0.29268,0.2439 -0.39024,0.43902 -0.09756,0.19512 -0.14634,0.43902 -0.14634,0.68292 v 2.58534 H 6.63408 v -4.878 H 7.5609 l 0.2439,0.58536 0.29268,-0.29268 c 0.09756,-0.09756 0.2439,-0.14634 0.39024,-0.2439 0.14634,-0.04878 0.29268,-0.09756 0.43902,-0.14634 0.14634,-0.04878 0.29268,-0.04878 0.4878,-0.04878 0.53658,0.04878 0.9756,0.2439 1.31706,0.58536 z"
   id="path20"
   style="stroke-width:0.4878" /><path
   class="st0"
   d="m 12.63402,26.200226 h 1.31706 v 1.2195 h -1.31706 z m 0,1.90242 h 1.31706 v 4.878 h -1.31706 z"
   id="path22"
   style="stroke-width:0.4878" /><path
   class="st0"
   d="m 19.9998,28.102646 -1.9512,4.878 h -1.2195 l -1.99998,-4.878 h 1.41462 l 1.2195,3.26826 1.17072,-3.26826 z"
   id="path24"
   style="stroke-width:0.4878" /><path
   class="st0"
   d="M 25.41438,30.931886 H 21.7071 c 0.04878,0.34146 0.19512,0.58536 0.39024,0.78048 0.19512,0.19512 0.4878,0.2439 0.78048,0.2439 0.2439,0 0.43902,-0.04878 0.58536,-0.14634 0.19512,-0.09756 0.34146,-0.2439 0.43902,-0.39024 h 1.41462 c -0.19512,0.53658 -0.4878,0.9756 -0.92682,1.26828 -0.43902,0.29268 -0.92682,0.4878 -1.51218,0.4878 -0.7317,0 -1.31706,-0.2439 -1.80486,-0.7317 -0.4878,-0.4878 -0.7317,-1.12194 -0.7317,-1.85364 0,-0.29268 0.04878,-0.58536 0.14634,-0.82926 0.09756,-0.2439 0.19512,-0.4878 0.34146,-0.7317 0.14634,-0.19512 0.34146,-0.39024 0.53658,-0.53658 0.19512,-0.14634 0.43902,-0.29268 0.68292,-0.34146 0.2439,-0.09756 0.53658,-0.14634 0.82926,-0.14634 0.4878,0 0.92682,0.09756 1.31706,0.34146 0.39024,0.2439 0.68292,0.53658 0.87804,0.92682 0.19512,0.39024 0.29268,0.82926 0.29268,1.26828 0.09756,0.14634 0.04878,0.2439 0.04878,0.39024 z m -3.26826,-1.60974 c -0.19512,0.14634 -0.34146,0.39024 -0.39024,0.68292 h 2.39022 c -0.04878,-0.19512 -0.14634,-0.39024 -0.2439,-0.4878 -0.09756,-0.14634 -0.2439,-0.2439 -0.39024,-0.29268 -0.14634,-0.04878 -0.34146,-0.09756 -0.53658,-0.09756 -0.34146,-0.04878 -0.63414,0.04878 -0.82926,0.19512 z"
   id="path26"
   style="stroke-width:0.4878" /><path
   class="st0"
   d="m 29.5119,28.102646 v 1.2195 h -0.58536 c -0.39024,0 -0.63414,0.09756 -0.78048,0.2439 -0.14634,0.19512 -0.2439,0.43902 -0.2439,0.87804 v 2.53656 H 26.5851 v -4.878 h 0.82926 l 0.2439,0.58536 c 0.34146,-0.43902 0.78048,-0.63414 1.41462,-0.63414 h 0.43902 z"
   id="path28"
   style="stroke-width:0.4878" /><path
   class="st0"
   d="m 31.07286,32.931866 c -0.29268,-0.14634 -0.53658,-0.34146 -0.7317,-0.63414 -0.19512,-0.2439 -0.2439,-0.58536 -0.2439,-0.92682 h 1.26828 c 0,0.14634 0.04878,0.2439 0.09756,0.39024 0.04878,0.09756 0.14634,0.19512 0.29268,0.19512 0.09756,0.04878 0.2439,0.04878 0.43902,0.04878 0.14634,0 0.2439,0 0.34146,-0.04878 0.09756,-0.04878 0.19512,-0.09756 0.2439,-0.14634 0.04878,-0.09756 0.09756,-0.14634 0.09756,-0.2439 0,-0.14634 -0.09756,-0.2439 -0.2439,-0.34146 -0.14634,-0.04878 -0.39024,-0.14634 -0.7317,-0.19512 -0.19512,-0.04878 -0.34146,-0.04878 -0.4878,-0.09756 -0.14634,-0.04878 -0.29268,-0.09756 -0.43902,-0.14634 -0.19512,-0.09756 -0.34146,-0.14634 -0.43902,-0.2439 -0.09756,-0.09756 -0.19512,-0.2439 -0.29268,-0.39024 -0.09756,-0.14634 -0.09756,-0.39024 -0.09756,-0.58536 0,-0.43902 0.19512,-0.82926 0.53658,-1.12194 0.34146,-0.29268 0.82926,-0.43902 1.41462,-0.43902 0.58536,0 1.07316,0.14634 1.41462,0.43902 0.34146,0.29268 0.53658,0.68292 0.53658,1.17072 h -1.26828 c 0,-0.39024 -0.2439,-0.58536 -0.7317,-0.58536 -0.19512,0 -0.39024,0.04878 -0.4878,0.14634 -0.09756,0.09756 -0.19512,0.19512 -0.19512,0.34146 0,0.04878 0,0.09756 0.04878,0.14634 0.04878,0.04878 0.04878,0.09756 0.09756,0.14634 0.04878,0.04878 0.09756,0.04878 0.19512,0.09756 0.09756,0.04878 0.19512,0.04878 0.2439,0.04878 l 0.29268,0.04878 c 0.09756,0 0.19512,0.04878 0.2439,0.04878 0.04878,0 0.14634,0.04878 0.2439,0.04878 0.09756,0 0.19512,0.04878 0.2439,0.04878 0.04878,0 0.14634,0.04878 0.2439,0.09756 0.09756,0.04878 0.19512,0.09756 0.2439,0.09756 0.04878,0.04878 0.09756,0.09756 0.19512,0.14634 0.09756,0.04878 0.14634,0.09756 0.19512,0.19512 0.04878,0.04878 0.09756,0.14634 0.14634,0.19512 0.04878,0.09756 0.04878,0.14634 0.09756,0.29268 v 0.34146 c 0,0.4878 -0.19512,0.92682 -0.58536,1.2195 -0.39024,0.29268 -0.87804,0.43902 -1.51218,0.43902 -0.2439,-0.04878 -0.63414,-0.09756 -0.92682,-0.2439 z"
   id="path30"
   style="stroke-width:0.4878" /><path
   class="st0"
   d="m 35.3655,26.200226 h 1.31706 v 1.2195 H 35.3655 Z m 0,1.90242 h 1.31706 v 4.878 H 35.3655 Z"
   id="path32"
   style="stroke-width:0.4878" /><path
   class="st0"
   d="m 41.12154,31.809926 v 1.17072 h -0.92682 c -0.34146,0 -0.68292,-0.04878 -0.92682,-0.19512 -0.2439,-0.14634 -0.4878,-0.34146 -0.58536,-0.58536 -0.14634,-0.2439 -0.19512,-0.58536 -0.19512,-0.92682 v -2.09754 h -0.87804 v -0.29268 l 1.9512,-2.04876 h 0.2439 v 1.26828 h 1.26828 v 1.07316 H 39.7557 v 1.90242 c 0,0.2439 0.04878,0.43902 0.19512,0.53658 0.14634,0.09756 0.29268,0.19512 0.53658,0.19512 z"
   id="path34"
   style="stroke-width:0.4878" /><path
   class="st0"
   d="M 46.87758,30.931886 H 43.1703 c 0.04878,0.34146 0.19512,0.58536 0.39024,0.78048 0.19512,0.19512 0.4878,0.2439 0.78048,0.2439 0.2439,0 0.43902,-0.04878 0.58536,-0.14634 0.19512,-0.09756 0.34146,-0.2439 0.43902,-0.39024 h 1.41462 c -0.19512,0.53658 -0.4878,0.9756 -0.92682,1.26828 -0.43902,0.29268 -0.92682,0.4878 -1.51218,0.4878 -0.7317,0 -1.31706,-0.2439 -1.80486,-0.7317 -0.4878,-0.4878 -0.7317,-1.12194 -0.7317,-1.85364 0,-0.29268 0.04878,-0.58536 0.14634,-0.82926 0.09756,-0.2439 0.19512,-0.4878 0.34146,-0.7317 0.14634,-0.19512 0.34146,-0.39024 0.53658,-0.53658 0.19512,-0.14634 0.43902,-0.29268 0.68292,-0.34146 0.2439,-0.09756 0.53658,-0.14634 0.82926,-0.14634 0.4878,0 0.92682,0.09756 1.31706,0.34146 0.39024,0.2439 0.68292,0.53658 0.87804,0.92682 0.19512,0.39024 0.29268,0.82926 0.29268,1.26828 0.09756,0.14634 0.09756,0.2439 0.04878,0.39024 z m -3.21948,-1.60974 c -0.19512,0.14634 -0.34146,0.39024 -0.39024,0.68292 h 2.39022 c -0.04878,-0.19512 -0.14634,-0.39024 -0.2439,-0.4878 -0.09756,-0.14634 -0.2439,-0.2439 -0.39024,-0.29268 -0.14634,-0.04878 -0.34146,-0.09756 -0.53658,-0.09756 -0.39024,-0.04878 -0.63414,0.04878 -0.82926,0.19512 z m 1.12194,-1.75608 h -0.9756 l 0.4878,-1.36584 h 1.41462 z"
   id="path36"
   style="stroke-width:0.4878" /><path
   class="st0"
   d="m 6.53652,38.883026 c 0,1.02438 -0.29268,1.85364 -0.92682,2.48778 -0.58536,0.63414 -1.36584,0.9756 -2.34144,0.9756 -0.92682,0 -1.7073,-0.29268 -2.34144,-0.92682 C 0.29268,40.785446 0,40.004966 0,39.078146 c 0,-0.9756 0.29268,-1.75608 0.92682,-2.39022 0.63414,-0.63414 1.41462,-0.92682 2.34144,-0.92682 0.78048,0 1.4634,0.2439 2.09754,0.68292 0.58536,0.43902 0.9756,1.02438 1.12194,1.75608 H 5.07312 c -0.09756,-0.2439 -0.2439,-0.43902 -0.39024,-0.58536 -0.14634,-0.14634 -0.39024,-0.29268 -0.58536,-0.39024 -0.2439,-0.09756 -0.4878,-0.14634 -0.7317,-0.14634 -0.58536,0 -1.02438,0.19512 -1.36584,0.58536 -0.34146,0.39024 -0.53658,0.87804 -0.53658,1.4634 0,0.39024 0.09756,0.7317 0.2439,1.02438 0.14634,0.29268 0.39024,0.53658 0.68292,0.7317 0.29268,0.14634 0.63414,0.2439 0.9756,0.2439 0.29268,0 0.53658,-0.04878 0.78048,-0.14634 0.2439,-0.09756 0.43902,-0.19512 0.63414,-0.39024 0.19512,-0.14634 0.29268,-0.34146 0.39024,-0.58536 H 3.12192 v -1.07316 h 3.4146 z"
   id="path38"
   style="stroke-width:0.4878" /><path
   class="st0"
   d="m 10.58526,37.273286 v 1.26828 H 9.9999 c -0.39024,0 -0.63414,0.09756 -0.78048,0.2439 -0.14634,0.19512 -0.2439,0.43902 -0.2439,0.87804 v 2.53656 H 7.65846 v -4.878 h 0.82926 l 0.2439,0.58536 c 0.34146,-0.43902 0.78048,-0.63414 1.41462,-0.63414 z"
   id="path40"
   style="stroke-width:0.4878" /><path
   class="st0"
   d="M 16.14618,40.102526 H 12.4389 c 0.04878,0.34146 0.19512,0.58536 0.39024,0.78048 0.19512,0.19512 0.4878,0.2439 0.78048,0.2439 0.2439,0 0.43902,-0.04878 0.58536,-0.14634 0.19512,-0.09756 0.34146,-0.2439 0.43902,-0.39024 h 1.41462 c -0.19512,0.53658 -0.4878,0.9756 -0.92682,1.26828 -0.43902,0.29268 -0.92682,0.4878 -1.51218,0.4878 -0.7317,0 -1.31706,-0.2439 -1.80486,-0.7317 -0.4878,-0.4878 -0.7317,-1.12194 -0.7317,-1.85364 0,-0.29268 0.04878,-0.58536 0.14634,-0.82926 0.09756,-0.2439 0.19512,-0.4878 0.34146,-0.7317 0.14634,-0.19512 0.34146,-0.39024 0.53658,-0.53658 0.19512,-0.14634 0.43902,-0.29268 0.68292,-0.34146 0.2439,-0.09756 0.53658,-0.14634 0.82926,-0.14634 0.4878,0 0.92682,0.09756 1.31706,0.34146 0.39024,0.2439 0.68292,0.53658 0.87804,0.92682 0.19512,0.39024 0.29268,0.82926 0.29268,1.26828 0.04878,0.14634 0.04878,0.2439 0.04878,0.39024 z m -3.26826,-1.56096 c -0.19512,0.14634 -0.34146,0.39024 -0.39024,0.68292 h 2.39022 c -0.04878,-0.19512 -0.14634,-0.39024 -0.2439,-0.4878 -0.09756,-0.14634 -0.2439,-0.2439 -0.39024,-0.29268 -0.14634,-0.04878 -0.34146,-0.09756 -0.53658,-0.09756 -0.39024,-0.04878 -0.63414,0 -0.82926,0.19512 z"
   id="path42"
   style="stroke-width:0.4878" /><path
   class="st0"
   d="m 21.41442,37.712306 c 0.34146,0.39024 0.4878,0.87804 0.4878,1.51218 v 2.97558 h -1.31706 v -2.78046 c 0,-0.7317 -0.29268,-1.12194 -0.82926,-1.12194 -0.2439,0 -0.43902,0.04878 -0.58536,0.14634 -0.14634,0.09756 -0.29268,0.2439 -0.39024,0.43902 -0.09756,0.19512 -0.14634,0.43902 -0.14634,0.68292 v 2.58534 H 17.3169 v -4.878 h 0.92682 l 0.2439,0.58536 0.29268,-0.29268 c 0.09756,-0.09756 0.2439,-0.14634 0.39024,-0.2439 0.14634,-0.04878 0.29268,-0.09756 0.43902,-0.14634 0.14634,-0.04878 0.29268,-0.04878 0.4878,-0.04878 0.53658,0.04878 0.9756,0.2439 1.31706,0.58536 z"
   id="path44"
   style="stroke-width:0.4878" /><path
   class="st0"
   d="m 24.24366,42.004946 c -0.39024,-0.2439 -0.7317,-0.53658 -0.92682,-0.92682 -0.2439,-0.39024 -0.34146,-0.82926 -0.34146,-1.31706 0,-0.7317 0.2439,-1.36584 0.7317,-1.85364 0.4878,-0.4878 1.12194,-0.7317 1.90242,-0.7317 0.78048,0 1.36584,0.2439 1.90242,0.7317 0.4878,0.4878 0.7317,1.12194 0.7317,1.85364 0,0.7317 -0.2439,1.36584 -0.78048,1.85364 -0.4878,0.4878 -1.12194,0.7317 -1.90242,0.7317 -0.43902,0 -0.92682,-0.14634 -1.31706,-0.34146 z m 2.29266,-1.31706 c 0.2439,-0.2439 0.34146,-0.58536 0.34146,-0.9756 0,-0.39024 -0.09756,-0.7317 -0.34146,-0.9756 -0.2439,-0.2439 -0.53658,-0.39024 -0.92682,-0.39024 -0.39024,0 -0.68292,0.14634 -0.92682,0.39024 -0.2439,0.2439 -0.34146,0.58536 -0.34146,0.9756 0,0.19512 0.04878,0.39024 0.09756,0.53658 0.04878,0.14634 0.14634,0.29268 0.2439,0.43902 0.09756,0.09756 0.2439,0.19512 0.39024,0.29268 0.14634,0.09756 0.34146,0.09756 0.53658,0.09756 0.39024,0 0.68292,-0.14634 0.92682,-0.39024 z"
   id="path46"
   style="stroke-width:0.4878" /><path
   class="st0"
   d="m 33.9021,37.907426 c 0.4878,0.4878 0.7317,1.12194 0.7317,1.85364 0,0.7317 -0.2439,1.36584 -0.7317,1.85364 -0.4878,0.4878 -1.12194,0.7317 -1.85364,0.7317 -0.58536,0 -1.12194,-0.19512 -1.51218,-0.53658 l -0.14634,0.39024 h -0.9756 v -6.68286 h 1.31706 v 2.04876 c 0.39024,-0.2439 0.82926,-0.39024 1.36584,-0.39024 0.68292,-0.04878 1.31706,0.2439 1.80486,0.7317 z m -1.02438,2.78046 c 0.2439,-0.2439 0.39024,-0.58536 0.39024,-0.9756 0,-0.2439 -0.04878,-0.4878 -0.14634,-0.68292 -0.09756,-0.19512 -0.29268,-0.39024 -0.4878,-0.4878 -0.19512,-0.09756 -0.43902,-0.19512 -0.68292,-0.19512 -0.2439,0 -0.4878,0.04878 -0.68292,0.19512 -0.19512,0.09756 -0.39024,0.29268 -0.4878,0.4878 -0.09756,0.19512 -0.19512,0.43902 -0.19512,0.68292 0,0.39024 0.14634,0.68292 0.39024,0.9756 0.2439,0.2439 0.58536,0.39024 0.9756,0.39024 0.39024,0 0.68292,-0.14634 0.92682,-0.39024 z"
   id="path48"
   style="stroke-width:0.4878" /><path
   class="st0"
   d="m 35.75574,35.517206 h 1.31706 v 6.68286 h -1.31706 z"
   id="path50"
   style="stroke-width:0.4878" /><path
   class="st0"
   d="m 43.26786,40.102526 h -3.70728 c 0.04878,0.34146 0.19512,0.58536 0.39024,0.78048 0.19512,0.19512 0.4878,0.2439 0.78048,0.2439 0.2439,0 0.43902,-0.04878 0.58536,-0.14634 0.19512,-0.09756 0.34146,-0.2439 0.43902,-0.39024 h 1.41462 c -0.19512,0.53658 -0.4878,0.9756 -0.92682,1.26828 -0.43902,0.29268 -0.92682,0.4878 -1.51218,0.4878 -0.7317,0 -1.31706,-0.2439 -1.80486,-0.7317 -0.4878,-0.4878 -0.7317,-1.12194 -0.7317,-1.85364 0,-0.29268 0.04878,-0.58536 0.14634,-0.82926 0.09756,-0.2439 0.19512,-0.4878 0.34146,-0.7317 0.14634,-0.2439 0.34146,-0.39024 0.53658,-0.53658 0.19512,-0.14634 0.43902,-0.29268 0.68292,-0.34146 0.2439,-0.04878 0.53658,-0.14634 0.82926,-0.14634 0.4878,0 0.92682,0.09756 1.31706,0.34146 0.39024,0.2439 0.68292,0.53658 0.87804,0.92682 0.19512,0.39024 0.29268,0.82926 0.29268,1.26828 0.04878,0.14634 0.04878,0.2439 0.04878,0.39024 z m -3.26826,-1.56096 c -0.19512,0.14634 -0.34146,0.39024 -0.39024,0.68292 h 2.39022 c -0.04878,-0.19512 -0.14634,-0.39024 -0.2439,-0.4878 -0.09756,-0.14634 -0.2439,-0.2439 -0.39024,-0.29268 -0.14634,-0.04878 -0.34146,-0.09756 -0.53658,-0.09756 -0.39024,-0.04878 -0.63414,0 -0.82926,0.19512 z"
   id="path52"
   style="stroke-width:0.4878" /><path
   class="st0"
   d="m 50.38974,40.980566 h -2.53656 l -0.43902,1.2195 h -1.4634 l 2.48778,-6.3414 h 1.31706 l 2.58534,6.3414 h -1.51218 z m -2.09754,-1.2195 h 1.65852 l -0.82926,-2.29266 z"
   id="path54"
   style="stroke-width:0.4878" /><path
   class="st0"
   d="m 53.21898,35.517206 h 1.31706 v 6.68286 h -1.31706 z"
   id="path56"
   style="stroke-width:0.4878" /><path
   class="st0"
   d="m 60.53598,37.907426 c 0.4878,0.4878 0.7317,1.12194 0.7317,1.85364 0,0.7317 -0.2439,1.36584 -0.7317,1.85364 -0.4878,0.4878 -1.12194,0.7317 -1.85364,0.7317 -0.4878,0 -0.9756,-0.14634 -1.36584,-0.39024 v 1.99998 h -1.31706 v -6.68286 h 0.87804 l 0.2439,0.43902 c 0.43902,-0.39024 0.9756,-0.58536 1.56096,-0.58536 0.7317,0 1.36584,0.29268 1.85364,0.78048 z m -1.02438,2.78046 c 0.2439,-0.2439 0.39024,-0.58536 0.39024,-0.9756 0,-0.2439 -0.04878,-0.4878 -0.19512,-0.68292 -0.09756,-0.19512 -0.29268,-0.39024 -0.4878,-0.4878 -0.19512,-0.09756 -0.43902,-0.19512 -0.68292,-0.19512 -0.2439,0 -0.4878,0.04878 -0.68292,0.19512 -0.19512,0.09756 -0.34146,0.29268 -0.4878,0.4878 -0.09756,0.19512 -0.14634,0.43902 -0.14634,0.68292 0,0.39024 0.14634,0.7317 0.39024,0.9756 0.2439,0.2439 0.58536,0.39024 0.9756,0.39024 0.34146,0 0.68292,-0.14634 0.92682,-0.39024 z"
   id="path58"
   style="stroke-width:0.4878" /><path
   class="st0"
   d="M 67.12128,40.102526 H 63.414 c 0.04878,0.34146 0.19512,0.58536 0.39024,0.78048 0.19512,0.19512 0.4878,0.2439 0.78048,0.2439 0.2439,0 0.43902,-0.04878 0.58536,-0.14634 0.19512,-0.09756 0.34146,-0.2439 0.43902,-0.39024 h 1.41462 c -0.19512,0.53658 -0.4878,0.9756 -0.92682,1.26828 -0.43902,0.29268 -0.92682,0.4878 -1.51218,0.4878 -0.7317,0 -1.31706,-0.2439 -1.80486,-0.7317 -0.4878,-0.4878 -0.7317,-1.12194 -0.7317,-1.85364 0,-0.29268 0.04878,-0.58536 0.14634,-0.82926 0.09756,-0.2439 0.19512,-0.4878 0.34146,-0.7317 0.14634,-0.19512 0.34146,-0.39024 0.53658,-0.53658 0.19512,-0.14634 0.43902,-0.29268 0.68292,-0.34146 0.2439,-0.09756 0.53658,-0.14634 0.82926,-0.14634 0.4878,0 0.92682,0.09756 1.31706,0.34146 0.39024,0.2439 0.68292,0.53658 0.87804,0.92682 0.19512,0.39024 0.29268,0.82926 0.29268,1.26828 0.04878,0.14634 0.04878,0.2439 0.04878,0.39024 z m -3.26826,-1.56096 c -0.19512,0.14634 -0.34146,0.39024 -0.39024,0.68292 H 65.853 c -0.04878,-0.19512 -0.14634,-0.39024 -0.2439,-0.4878 -0.09756,-0.14634 -0.2439,-0.2439 -0.39024,-0.29268 -0.14634,-0.04878 -0.34146,-0.09756 -0.53658,-0.09756 -0.39024,-0.04878 -0.63414,0 -0.82926,0.19512 z"
   id="path60"
   style="stroke-width:0.4878" /><path
   class="st0"
   d="m 68.92614,42.102506 c -0.29268,-0.14634 -0.53658,-0.34146 -0.7317,-0.63414 -0.19512,-0.2439 -0.2439,-0.58536 -0.2439,-0.92682 h 1.26828 c 0,0.14634 0.04878,0.2439 0.09756,0.39024 0.04878,0.09756 0.14634,0.19512 0.29268,0.19512 0.09756,0.04878 0.2439,0.04878 0.43902,0.04878 0.14634,0 0.2439,0 0.34146,-0.04878 0.09756,-0.04878 0.19512,-0.09756 0.2439,-0.14634 0.04878,-0.09756 0.09756,-0.14634 0.09756,-0.2439 0,-0.14634 -0.09756,-0.2439 -0.2439,-0.34146 -0.14634,-0.04878 -0.39024,-0.14634 -0.7317,-0.19512 -0.19512,-0.04878 -0.34146,-0.04878 -0.4878,-0.09756 -0.14634,-0.04878 -0.29268,-0.09756 -0.43902,-0.14634 -0.19512,-0.09756 -0.34146,-0.14634 -0.43902,-0.2439 -0.09756,-0.09756 -0.19512,-0.2439 -0.29268,-0.39024 -0.09756,-0.14634 -0.09756,-0.39024 -0.09756,-0.58536 0,-0.43902 0.19512,-0.82926 0.53658,-1.12194 0.34146,-0.29268 0.82926,-0.43902 1.41462,-0.43902 0.58536,0 1.07316,0.14634 1.41462,0.43902 0.34146,0.29268 0.53658,0.68292 0.53658,1.17072 h -1.26828 c 0,-0.39024 -0.2439,-0.58536 -0.7317,-0.58536 -0.19512,0 -0.39024,0.04878 -0.4878,0.14634 -0.09756,0.09756 -0.19512,0.19512 -0.19512,0.34146 0,0.04878 0,0.09756 0.04878,0.14634 0.04878,0.04878 0.04878,0.09756 0.09756,0.14634 0.04878,0.04878 0.09756,0.04878 0.19512,0.09756 0.09756,0.04878 0.19512,0.04878 0.2439,0.04878 l 0.29268,0.04878 c 0.09756,0 0.19512,0.04878 0.2439,0.04878 0.04878,0 0.14634,0.04878 0.2439,0.04878 0.09756,0 0.19512,0.04878 0.2439,0.04878 0.04878,0 0.14634,0.04878 0.2439,0.09756 0.09756,0.04878 0.19512,0.09756 0.2439,0.09756 0.04878,0.04878 0.09756,0.09756 0.19512,0.14634 0.09756,0.04878 0.14634,0.09756 0.19512,0.19512 0.04878,0.04878 0.09756,0.14634 0.14634,0.19512 0.04878,0.09756 0.04878,0.14634 0.09756,0.29268 v 0.34146 c 0,0.4878 -0.19512,0.92682 -0.58536,1.2195 -0.39024,0.29268 -0.87804,0.43902 -1.51218,0.43902 -0.2439,0 -0.63414,-0.09756 -0.92682,-0.2439 z"
   id="path62"
   style="stroke-width:0.4878" />
</svg>
