<?xml version="1.0" encoding="UTF-8" standalone="no"?>
<svg
   width="72"
   height="47.358"
   version="1.1"
   viewBox="0 0 72 47.358"
   id="svg62"
   sodipodi:docname="logo_lpsc.svg"
   inkscape:version="1.1.2 (0a00cf5339, 2022-02-04)"
   xmlns:inkscape="http://www.inkscape.org/namespaces/inkscape"
   xmlns:sodipodi="http://sodipodi.sourceforge.net/DTD/sodipodi-0.dtd"
   xmlns="http://www.w3.org/2000/svg"
   xmlns:svg="http://www.w3.org/2000/svg">
  <defs
     id="defs66" />
  <sodipodi:namedview
     id="namedview64"
     pagecolor="#ffffff"
     bordercolor="#666666"
     borderopacity="1.0"
     inkscape:pageshadow="2"
     inkscape:pageopacity="0.0"
     inkscape:pagecheckerboard="0"
     showgrid="false"
     inkscape:zoom="15.182228"
     inkscape:cx="35.930167"
     inkscape:cy="23.679001"
     inkscape:window-width="1850"
     inkscape:window-height="1136"
     inkscape:window-x="70"
     inkscape:window-y="27"
     inkscape:window-maximized="1"
     inkscape:current-layer="svg62" />
  <path
     d="m 44.55318,17.96514 c -0.95591,-0.372839 -2.178803,-0.73112 -3.669666,-1.07509 -1.089401,-0.267477 -1.949325,-0.506331 -2.580018,-0.716809 -0.63094,-0.210231 -1.151829,-0.496707 -1.562668,-0.86017 -0.411085,-0.362969 -0.616381,-0.831301 -0.616381,-1.404748 0,-0.821677 0.358281,-1.480993 1.075089,-1.978194 0.716809,-0.496708 1.810652,-0.745432 3.282762,-0.745432 0.89817,0 1.824963,0.133985 2.780873,0.401462 0.955663,0.267724 1.872832,0.659316 2.752249,1.17527 L 47.191184,9.865818 C 46.330767,9.292371 45.308235,8.853156 44.123342,8.5469393 42.937955,8.2414627 41.733814,8.088231 40.510675,8.088231 c -1.758587,0 -3.244516,0.2679705 -4.458033,0.8029245 -1.213763,0.5352008 -2.121556,1.2569445 -2.723626,2.1644915 -0.60207,0.90804 -0.902858,1.916507 -0.902858,3.024661 0,1.318879 0.339034,2.365345 1.017597,3.1394 0.678315,0.774055 1.490863,1.343061 2.436903,1.705783 0.946286,0.363463 2.18349,0.726679 3.712847,1.089401 1.089401,0.267971 1.949572,0.506825 2.580265,0.716809 0.630693,0.210725 1.151335,0.501643 1.562421,0.874482 0.411085,0.372593 0.616628,0.845612 0.616628,1.419183 0,0.783826 -0.368645,1.414494 -1.10396,1.892177 -0.735808,0.47798 -1.849144,0.716834 -3.340008,0.716834 -1.20414,0 -2.403838,-0.205296 -3.598108,-0.616579 -1.194517,-0.410716 -2.202984,-0.941031 -3.024662,-1.591069 l -1.290009,2.895611 c 0.840678,0.726457 1.982637,1.309305 3.425877,1.749038 1.442994,0.439413 2.938546,0.659267 4.486902,0.659267 1.758341,0 3.249204,-0.267946 4.472344,-0.802702 1.22314,-0.534954 2.136115,-1.251763 2.738185,-2.150204 0.60207,-0.898417 0.903105,-1.901703 0.903105,-3.01035 0,-1.299509 -0.339528,-2.331665 -1.017844,-3.096219 -0.678562,-0.764185 -1.495798,-1.333191 -2.451461,-1.705783"
     fill="#0f315a"
     id="path2"
     style="stroke-width:0.024675;fill:#2a2e46;fill-opacity:1" />
  <path
     d="m 59.059612,25.461652 c -1.376124,0 -2.608887,-0.301011 -3.698289,-0.903031 -1.089401,-0.601947 -1.939948,-1.437812 -2.551641,-2.508461 -0.611694,-1.070154 -0.917664,-2.283671 -0.917664,-3.641043 0,-1.356878 0.30597,-2.570641 0.917664,-3.641043 0.611693,-1.070401 1.46224,-1.906637 2.551641,-2.508707 1.089402,-0.60207 2.322165,-0.903105 3.698289,-0.903105 1.579694,0 2.973831,0.435267 4.182413,1.304321 0.967753,-0.747653 2.131427,-1.252503 3.399968,-1.423995 C 65.740369,10.249095 64.657876,9.4841698 63.388841,8.947982 62.031469,8.374535 60.531229,8.0878115 58.887628,8.0878115 c -2.026065,0 -3.855963,0.4443968 -5.490188,1.3331903 -1.634225,0.8887932 -2.919793,2.1171152 -3.855962,3.6839772 -0.93691,1.567603 -1.404995,3.335814 -1.404995,5.304138 0,1.968572 0.463397,3.736782 1.390437,5.303645 0.926793,1.567553 2.207672,2.795677 3.841897,3.683977 1.634225,0.888794 3.464123,1.333215 5.490434,1.333215 1.643355,0 3.148284,-0.286748 4.515279,-0.860146 1.347008,-0.565304 2.484525,-1.382293 3.413786,-2.449289 -1.278165,-0.146027 -2.455409,-0.629213 -3.438708,-1.359815 -1.23375,0.93274 -2.662926,1.400775 -4.289996,1.400775"
     fill="#0f315a"
     id="path4"
     style="stroke-width:0.024675;fill:#2a2e46;fill-opacity:1" />
  <g
     fill="#b77a09"
     id="g12"
     transform="matrix(0.024675,0,0,-0.024675,0,47.358)">
    <path
       d="m 464.9,1231.1 c 81,81.8 173.49,152.06 269.53,216.17 96.613,63.44 197.55,120.45 301.74,170.74 208.02,101.47 427.47,179.16 652.91,233.81 225.46,51.86 459.3,84.87 693.46,57.72 115.77,-14.44 234.82,-45.35 331.85,-117.35 23.81,-18.14 46.01,-38.66 64.66,-62.12 18.95,-23.09 35.18,-48.53 46.52,-75.95 24.69,-54.18 30.82,-113.88 28.17,-170.95 -2.97,28.58 -6.45,57.03 -14.87,84.15 -3.1,13.8 -8.79,26.82 -13.24,40.07 -6.08,12.66 -11.1,25.7 -18.57,37.51 -27.08,48.56 -67.08,88.41 -113.63,117.25 -46.11,29.77 -98.3,49.59 -151.88,63.38 -53.62,13.93 -109.03,22.05 -164.8,26.09 -111.66,7.43 -224.65,2.51 -336.67,-11.56 -112.14,-13.13 -223.63,-34.08 -333.78,-60.78 -110.49,-25.33 -219.46,-57.61 -327.26,-93.27 -107.96,-35.35 -214.01,-76.45 -318.75,-120.74 C 955.84,1520.33 852.95,1471.36 753.3,1416.1 653.28,1361.44 556.62,1300.39 464.9,1231.1"
       id="path6" />
    <path
       d="M 1643.3,1904.2 C 1315.32,1805.81 999.31,1667.39 712.41,1485.86 569.42,1395.37 432.2,1294.21 317.29,1174.48 260.294,1114.64 209.26,1049.68 172.42,980.03 134.736,910.819 115.432,835.76 123.728,766.47 c 4.731,-34.5 17.582,-67.848 33.649,-96.41 18.953,-27.629 42.273,-52.559 71.519,-73.047 58.95,-40.621 134.48,-64.5 212.02,-79.262 156.68,-28.859 324.04,-27.039 489.94,-16.66 166.54,10.238 333.53,34.992 498.71,69.238 164.87,35.801 329.06,78.902 485.23,149.5 l 8,-12.598 c -67.62,-55.421 -144.23,-99.281 -222.41,-138.51 -78.73,-38.34 -159.96,-71.52 -242.92,-99.547 -82.72,-28.973 -167.45,-51.543 -252.86,-71.832 -85.66,-19.149 -172.45,-33.758 -260.08,-44.828 -175.22,-19.602 -355.56,-22.231 -535.35,20.968 -89.106,22.918 -179.81,56.04 -259.58,117.65 -39.727,30.941 -74.485,70.57 -101.07,115.8 -24.18,47.261 -39.102,96.269 -43.543,147.39 -3.1016,50.75 1.8008,101.47 15.773,148.17 14.023,46.481 33.059,90.524 57.144,130.16 47.18,80.24 106.81,148.67 170.75,210.35 128.78,122.81 274.85,220.37 425.46,306.88 151.59,85.14 309.48,157.1 470.81,218.8 80.78,30.55 162.21,59.21 244.77,84.15 82.63,24.71 165.95,46.79 249.88,65.82 l 3.72,-14.45"
       id="path8" />
    <path
       d="m 2854.3,1346.4 c -9.08,8.75 -18.05,16.49 -27.33,23.82 -9.31,7.3 -18.95,14.14 -29.61,20.86 -10.66,6.94 -22.28,13.18 -36.19,21.36 28.36,15.76 64.69,8.21 89.86,-11.56 12.72,-9.92 22.9,-23.09 29.01,-37.82 5.94,-14.76 8.3,-31.06 3.7,-46.66 -11.28,11.56 -20.15,21.29 -29.44,30 z m -55.55,114 c -65.7,0 -119.16,-53.46 -119.16,-119.17 0,-65.71 53.46,-119.17 119.16,-119.17 65.73,0 119.18,53.46 119.18,119.17 0,65.71 -53.45,119.17 -119.18,119.17"
       id="path10" />
  </g>
  <path
     d="m 71.064,13.725975 c -0.150764,-0.363463 -0.401956,-0.688433 -0.715822,-0.933209 -0.62107,-0.487824 -1.517512,-0.67412 -2.217295,-0.285243 0.343229,0.201842 0.629952,0.355814 0.892988,0.527059 0.263035,0.165816 0.500902,0.334593 0.730627,0.51472 0.228984,0.180868 0.450318,0.371852 0.674367,0.587758 0.229231,0.21492 0.448098,0.455007 0.726432,0.74025 0.113505,-0.38493 0.05527,-0.787132 -0.0913,-1.151335"
     fill="#ffffff"
     id="path14"
     style="stroke-width:0.024675" />
  <path
     d="m 53.542282,27.687337 c -0.278334,-0.284922 -0.497201,-0.525306 -0.726185,-0.74025 -0.224295,-0.215907 -0.445384,-0.406669 -0.674614,-0.587783 -0.229724,-0.180054 -0.467591,-0.348806 -0.730627,-0.514696 -0.262789,-0.171195 -0.549512,-0.325217 -0.892988,-0.526762 0.699783,-0.3891 1.596719,-0.202878 2.217542,0.285218 0.314113,0.244529 0.564811,0.569549 0.715822,0.932913 0.146322,0.364548 0.204802,0.766479 0.09105,1.15136 z m -2.410747,-3.530746 c -1.934273,0 -3.507798,1.573401 -3.507798,3.507798 0,1.934495 1.573525,3.508045 3.507798,3.508045 1.934273,0 3.507798,-1.5735 3.507798,-3.508045 0,-1.934298 -1.573525,-3.507798 -3.507798,-3.507798"
     fill="#b77a09"
     id="path16"
     style="stroke-width:0.024675" />
  <path
     d="m 52.73541,25.603039 c -0.620823,-0.488096 -1.517759,-0.674318 -2.217542,-0.285218 0.343476,0.201546 0.630199,0.355567 0.892988,0.526762 0.263035,0.16589 0.500903,0.334642 0.730627,0.514696 0.22923,0.181114 0.450319,0.371877 0.674614,0.587783 0.228984,0.214944 0.447852,0.455328 0.726185,0.74025 0.113752,-0.384881 0.05527,-0.786812 -0.09105,-1.15136 -0.151011,-0.363364 -0.401709,-0.688383 -0.715822,-0.932912"
     fill="#ffffff"
     id="path18"
     style="stroke-width:0.024675" />
  <g
     fill="#0f315a"
     id="g36"
     transform="matrix(0.024675,0,0,-0.024675,0,47.358)"
     style="fill:#2a2e46;fill-opacity:1">
    <path
       d="m 781.17,152.27 h 53.09 V 63.191 c -15.039,-6.4219 -31.039,-9.6211 -47.989,-9.6211 -20.187,0 -35.73,7.668 -46.613,23.039 -10.89,15.359 -16.336,37.493 -16.336,66.403 0,27.867 6.239,49.687 18.707,65.437 12.481,15.762 29.918,23.641 52.324,23.641 13.852,0 27.086,-3.559 39.668,-10.68 l -10.214,-26.379 c -9.813,5.699 -19,8.559 -27.559,8.559 -12.27,0 -21.988,-5.481 -29.156,-16.449 -7.168,-10.981 -10.746,-25.93 -10.746,-44.852 0,-19.48 2.59,-34.398 7.777,-44.777 5.188,-10.371 12.727,-15.551 22.629,-15.551 5.223,0 10.535,0.668 15.914,2.0196 v 39.79 H 781.17 v 28.5"
       id="path20"
       style="fill:#2a2e46;fill-opacity:1" />
    <path
       d="m 893.06,151.33 h 8.308 c 7.609,0 13.074,2.152 16.395,6.473 3.324,4.308 4.988,10.75 4.988,19.289 0,8.879 -1.762,15.191 -5.281,18.961 -3.524,3.758 -8.973,5.629 -16.34,5.629 h -8.07 z m 0,-27.797 v -67.59 h -32.305 v 173.66 h 42.277 c 17.903,0 31.106,-4.25 39.613,-12.711 8.508,-8.481 12.766,-21.422 12.766,-38.84 0,-21.93 -7.394,-37.27 -22.207,-45.973 l 33.375,-76.137 h -34.566 l -27.438,67.59 H 893.06"
       id="path22"
       style="fill:#2a2e46;fill-opacity:1" />
    <path
       d="m 1060.7,55.941 h -78.265 v 173.66 h 78.265 v -27.922 h -45.96 v -41.328 h 42.64 v -28.032 h -42.64 V 84.21 h 45.96 V 55.94"
       id="path24"
       style="fill:#2a2e46;fill-opacity:1" />
    <path
       d="m 1207.6,55.941 h -39.44 l -53.69,125.79 h -1.54 c 1.98,-9.589 2.97,-19.871 2.97,-30.878 V 55.942 h -29.93 v 173.66 h 39.67 l 53.21,-124.48 h 1.32 c -1.52,8.309 -2.27,18.207 -2.27,29.688 v 94.793 h 29.7 V 55.943"
       id="path26"
       style="fill:#2a2e46;fill-opacity:1" />
    <path
       d="m 1265.9,143.01 c 0,-19.793 2.5,-34.883 7.48,-45.25 4.99,-10.383 12.31,-15.562 21.98,-15.562 19.48,0 29.22,20.262 29.22,60.813 0,40.539 -9.66,60.808 -28.98,60.808 -9.82,0 -17.23,-5.172 -22.22,-15.5 -4.98,-10.332 -7.48,-25.441 -7.48,-45.308 z m 91.82,0 c 0,-28.742 -5.38,-50.84 -16.16,-66.282 -10.76,-15.441 -26.16,-23.16 -46.2,-23.16 -20.12,0 -35.56,7.6914 -46.33,23.09 -10.76,15.41 -16.15,37.61 -16.15,66.578 0,28.75 5.39,50.782 16.15,66.114 10.77,15.32 26.3,22.988 46.57,22.988 20.03,0 35.4,-7.719 46.08,-23.11 10.7,-15.402 16.04,-37.48 16.04,-66.218"
       id="path28"
       style="fill:#2a2e46;fill-opacity:1" />
    <path
       d="M 1413.4,132.8 V 84.21 h 16.27 c 6.73,0 11.75,2.0586 15.03,6.1797 3.29,4.1094 4.93,10.488 4.93,19.109 0,15.531 -6.81,23.301 -20.44,23.301 z m 0,26.961 h 14.85 c 6.81,0 11.6,1.808 14.37,5.468 2.78,3.629 4.16,9.059 4.16,16.27 0,7.199 -1.58,12.371 -4.75,15.488 -3.17,3.133 -8.16,4.692 -14.96,4.692 h -13.67 z m -30.4,69.84 h 44.3 c 18.05,0 31.2,-3.512 39.43,-10.524 8.25,-7 12.36,-18.148 12.36,-33.418 0,-10.07 -2.19,-18.48 -6.54,-25.262 -4.35,-6.757 -10.29,-10.867 -17.81,-12.277 v -1.191 c 9.82,-2.461 16.9,-7.039 21.26,-13.77 4.35,-6.738 6.53,-15.699 6.53,-26.851 0,-15.758 -4.21,-28.09 -12.65,-37 -8.43,-8.9102 -19.97,-13.367 -34.62,-13.367 H 1383 v 173.66"
       id="path30"
       style="fill:#2a2e46;fill-opacity:1" />
    <path
       d="m 1506.3,55.941 v 173.66 h 32.31 V 84.211 h 44.78 v -28.27 h -77.09"
       id="path32"
       style="fill:#2a2e46;fill-opacity:1" />
    <path
       d="m 1682.3,55.941 h -78.26 v 173.66 h 78.26 v -27.922 h -45.96 v -41.328 h 42.64 v -28.032 h -42.64 V 84.21 h 45.96 V 55.94"
       id="path34"
       style="fill:#2a2e46;fill-opacity:1" />
  </g>
  <path
     d="m 44.459415,41.428597 h 0.606511 V 47.358 h -0.606511 v -5.929403"
     fill="#b77a09"
     id="path38"
     style="stroke-width:0.024675" />
  <g
     id="g1173"
     style="fill:#2a2e46;fill-opacity:1">
    <path
       d="m 49.67571,45.977656 -0.815015,-3.648939 h -0.03208 c 0.03726,0.281245 0.05577,0.539173 0.05577,0.773586 V 45.97768 H 48.14586 v -4.28506 h 1.224867 l 0.732847,3.367397 h 0.02344 l 0.726678,-3.367397 h 1.243127 v 4.28506 h -0.756535 v -2.904247 c 0,-0.240754 0.01382,-0.486838 0.04096,-0.738992 h -0.02344 l -0.811808,3.643264 H 49.67571"
       id="path40"
       style="fill:#2a2e46;stroke-width:0.024675;fill-opacity:1" />
    <path
       d="m 53.53488,43.829228 c 0,0.488393 0.06144,0.860738 0.184569,1.116544 0.123128,0.256201 0.303749,0.383992 0.54211,0.383992 0.480669,0 0.721003,-0.499965 0.721003,-1.50056 0,-1.0003 -0.23836,-1.500438 -0.715328,-1.500438 -0.242062,0 -0.424657,0.127619 -0.547785,0.382463 -0.123128,0.254942 -0.184569,0.627756 -0.184569,1.117975 z m 2.265412,0 c 0,0.709209 -0.132752,1.254477 -0.398748,1.635509 -0.265503,0.381006 -0.645498,0.571473 -1.139985,0.571473 -0.496461,0 -0.877443,-0.189786 -1.142946,-0.569746 -0.26575,-0.380242 -0.398748,-0.928027 -0.398748,-1.642812 0,-0.709407 0.132998,-1.253046 0.398748,-1.631363 0.265503,-0.378021 0.648705,-0.567229 1.148621,-0.567229 0.494487,0 0.873495,0.190466 1.137518,0.570239 0.263775,0.380044 0.39554,0.924819 0.39554,1.633929"
       id="path42"
       style="fill:#2a2e46;stroke-width:0.024675;fill-opacity:1" />
    <path
       d="m 58.3317,43.817631 c 0,-0.957612 -0.263776,-1.436085 -0.791327,-1.436085 h -0.319542 v 2.898572 h 0.257854 c 0.291165,0 0.506084,-0.12164 0.644758,-0.364918 0.138673,-0.243271 0.208257,-0.608979 0.208257,-1.097544 z m 0.817483,-0.02371 c 0,0.707457 -0.144349,1.248284 -0.432306,1.622653 -0.288451,0.374073 -0.702744,0.56106 -1.244114,0.56106 h -1.049181 v -4.28506 h 1.14566 c 0.498682,0 0.886326,0.184396 1.16392,0.552794 0.277347,0.368101 0.416021,0.884524 0.416021,1.548553"
       id="path44"
       style="fill:#2a2e46;stroke-width:0.024675;fill-opacity:1" />
    <path
       d="m 61.406205,44.189977 -0.228737,-0.996624 c -0.01382,-0.06063 -0.04442,-0.212451 -0.09228,-0.455722 -0.04762,-0.243271 -0.07649,-0.405879 -0.08661,-0.488096 -0.02517,0.168086 -0.05749,0.353148 -0.09623,0.555459 -0.03923,0.202335 -0.140647,0.663732 -0.304983,1.384983 z m 0.39554,1.787703 -0.246256,-1.081455 h -1.116544 l -0.24601,1.081455 h -0.797496 l 1.061025,-4.302579 h 1.081505 l 1.064233,4.302579 h -0.800457"
       id="path46"
       style="fill:#2a2e46;stroke-width:0.024675;fill-opacity:1" />
    <path
       d="m 65.98095,45.977656 h -0.973182 l -1.324801,-3.103868 h -0.038 c 0.04886,0.236608 0.07328,0.490316 0.07328,0.761914 v 2.341929 H 62.97973 v -4.28506 h 0.978857 l 1.312957,3.071544 h 0.03257 c -0.03751,-0.205025 -0.05601,-0.449258 -0.05601,-0.732552 v -2.339017 h 0.732847 v 4.28506"
       id="path48"
       style="fill:#2a2e46;stroke-width:0.024675;fill-opacity:1" />
    <path
       d="m 68.668058,45.977656 h -1.931066 v -4.285061 h 1.931066 v 0.688976 h -1.133817 v 1.019768 h 1.051896 v 0.69169 h -1.051896 v 1.187089 h 1.133817 v 0.697562"
       id="path50"
       style="fill:#2a2e46;stroke-width:0.024675;fill-opacity:1" />
  </g>
  <path
     d="M 3.7271588,8.3739675 H 0 V 28.442885 H 14.220202 V 25.289173 H 3.726912 V 8.3739675"
     id="path52"
     style="fill:#2a2e46;stroke-width:0.024675;fill-opacity:1" />
  <path
     d="m 26.80692,18.466042 c -0.841171,0.688186 -2.073934,1.032156 -3.698289,1.032156 h -4.357852 v -7.970272 h 4.357852 c 1.624405,0 2.857118,0.343969 3.698289,1.032155 0.840924,0.687939 1.261633,1.672718 1.261633,2.953104 0,1.280633 -0.420709,2.264672 -1.261633,2.952857 z M 27.824764,9.2343847 C 26.534755,8.6609377 25.01971,8.3742142 23.280616,8.3742142 H 15.023621 V 28.443132 h 3.727158 v -5.791223 h 4.529837 c 1.739069,0 3.254139,-0.286723 4.544148,-0.86017 1.290255,-0.5732 2.279229,-1.399813 2.967415,-2.479838 0.688186,-1.079778 1.032155,-2.346098 1.032155,-3.798716 0,-1.471617 -0.343969,-2.742626 -1.032155,-3.813027 -0.688186,-1.070402 -1.67716,-1.892573 -2.967415,-2.4657733"
     id="path54"
     style="fill:#2a2e46;stroke-width:0.024675;fill-opacity:1" />
</svg>
