<svg width="72" height="47.358" version="1.1" viewBox="0 0 72 47.358" xmlns="http://www.w3.org/2000/svg">
    <g transform="matrix(.24675 0 0 -.24675 0 47.358)">
        <g transform="scale(.1)">
            <path d="m1805.6 1191.2c-38.74 15.11-88.3 29.63-148.72 43.57-44.15 10.84-79 20.52-104.56 29.05-25.57 8.52-46.68 20.13-63.33 34.86-16.66 14.71-24.98 33.69-24.98 56.93 0 33.3 14.52 60.02 43.57 80.17 29.05 20.13 73.38 30.21 133.04 30.21 36.4 0 73.96-5.43 112.7-16.27 38.73-10.85 75.9-26.72 111.54-47.63l47.65 117.35c-34.87 23.24-76.31 41.04-124.33 53.45-48.04 12.38-96.84 18.59-146.41 18.59-71.27 0-131.49-10.86-180.67-32.54-49.19-21.69-85.98-50.94-110.38-87.72-24.4-36.8-36.59-77.67-36.59-122.58 0-53.45 13.74-95.86 41.24-127.23 27.49-31.37 60.42-54.43 98.76-69.13 38.35-14.73 88.49-29.45 150.47-44.15 44.15-10.86 79.01-20.54 104.57-29.05 25.56-8.54 46.66-20.33 63.32-35.44 16.66-15.1 24.99-34.27 24.99-57.515 0-31.766-14.94-57.325-44.74-76.684-29.82-19.371-74.94-29.051-135.36-29.051-48.8 0-97.42 8.32-145.82 24.988-48.41 16.645-89.28 38.137-122.58 64.481l-52.28-117.35c34.07-29.441 80.35-53.062 138.84-70.883 58.48-17.808 119.09-26.718 181.84-26.718 71.26 0 131.68 10.859 181.25 32.531 49.57 21.68 86.57 50.73 110.97 87.141 24.4 36.41 36.6 77.07 36.6 122 0 52.665-13.76 94.495-41.25 125.48-27.5 30.97-60.62 54.03-99.35 69.13"
                  fill="#0f315a"/>
            <path d="m2393.5 887.39c-55.77 0-105.73 12.199-149.88 36.597-44.15 24.395-78.62 58.27-103.41 101.66-24.79 43.37-37.19 92.55-37.19 147.56 0 54.99 12.4 104.18 37.19 147.56s59.26 77.27 103.41 101.67 94.11 36.6 149.88 36.6c64.02 0 120.52-17.64 169.5-52.86 39.22 30.3 86.38 50.76 137.79 57.71-36.54 40.02-80.41 71.02-131.84 92.75-55.01 23.24-115.81 34.86-182.42 34.86-82.11 0-156.27-18.01-222.5-54.03s-118.33-85.8-156.27-149.3c-37.97-63.53-56.94-135.19-56.94-214.96 0-79.78 18.78-151.44 56.35-214.94 37.56-63.528 89.47-113.3 155.7-149.3 66.23-36.02 140.39-54.031 222.51-54.031 66.6 0 127.59 11.621 182.99 34.859 54.59 22.91 100.69 56.02 138.35 99.262-51.8 5.918-99.51 25.5-139.36 55.109-50-37.801-107.92-56.769-173.86-56.769"
                  fill="#0f315a"/>
            <g fill="#b77a09">
                <path d="m464.9 1231.1c81 81.8 173.49 152.06 269.53 216.17 96.613 63.44 197.55 120.45 301.74 170.74 208.02 101.47 427.47 179.16 652.91 233.81 225.46 51.86 459.3 84.87 693.46 57.72 115.77-14.44 234.82-45.35 331.85-117.35 23.81-18.14 46.01-38.66 64.66-62.12 18.95-23.09 35.18-48.53 46.52-75.95 24.69-54.18 30.82-113.88 28.17-170.95-2.97 28.58-6.45 57.03-14.87 84.15-3.1 13.8-8.79 26.82-13.24 40.07-6.08 12.66-11.1 25.7-18.57 37.51-27.08 48.56-67.08 88.41-113.63 117.25-46.11 29.77-98.3 49.59-151.88 63.38-53.62 13.93-109.03 22.05-164.8 26.09-111.66 7.43-224.65 2.51-336.67-11.56-112.14-13.13-223.63-34.08-333.78-60.78-110.49-25.33-219.46-57.61-327.26-93.27-107.96-35.35-214.01-76.45-318.75-120.74-104.45-44.94-207.34-93.91-306.99-149.17-100.02-54.66-196.68-115.71-288.4-185"/>
                <path d="m1643.3 1904.2c-327.98-98.39-643.99-236.81-930.89-418.34-142.99-90.49-280.21-191.65-395.12-311.38-56.996-59.84-108.03-124.8-144.87-194.45-37.684-69.211-56.988-144.27-48.692-213.56 4.731-34.5 17.582-67.848 33.649-96.41 18.953-27.629 42.273-52.559 71.519-73.047 58.95-40.621 134.48-64.5 212.02-79.262 156.68-28.859 324.04-27.039 489.94-16.66 166.54 10.238 333.53 34.992 498.71 69.238 164.87 35.801 329.06 78.902 485.23 149.5l8-12.598c-67.62-55.421-144.23-99.281-222.41-138.51-78.73-38.34-159.96-71.52-242.92-99.547-82.72-28.973-167.45-51.543-252.86-71.832-85.66-19.149-172.45-33.758-260.08-44.828-175.22-19.602-355.56-22.231-535.35 20.968-89.106 22.918-179.81 56.04-259.58 117.65-39.727 30.941-74.485 70.57-101.07 115.8-24.18 47.261-39.102 96.269-43.543 147.39-3.1016 50.75 1.8008 101.47 15.773 148.17 14.023 46.481 33.059 90.524 57.144 130.16 47.18 80.24 106.81 148.67 170.75 210.35 128.78 122.81 274.85 220.37 425.46 306.88 151.59 85.14 309.48 157.1 470.81 218.8 80.78 30.55 162.21 59.21 244.77 84.15 82.63 24.71 165.95 46.79 249.88 65.82l3.72-14.45"/>
                <path d="m2854.3 1346.4c-9.08 8.75-18.05 16.49-27.33 23.82-9.31 7.3-18.95 14.14-29.61 20.86-10.66 6.94-22.28 13.18-36.19 21.36 28.36 15.76 64.69 8.21 89.86-11.56 12.72-9.92 22.9-23.09 29.01-37.82 5.94-14.76 8.3-31.06 3.7-46.66-11.28 11.56-20.15 21.29-29.44 30zm-55.55 114c-65.7 0-119.16-53.46-119.16-119.17s53.46-119.17 119.16-119.17c65.73 0 119.18 53.46 119.18 119.17s-53.45 119.17-119.18 119.17"/>
            </g>
            <path d="m2880 1363c-6.11 14.73-16.29 27.9-29.01 37.82-25.17 19.77-61.5 27.32-89.86 11.56 13.91-8.18 25.53-14.42 36.19-21.36 10.66-6.72 20.3-13.56 29.61-20.86 9.28-7.33 18.25-15.07 27.33-23.82 9.29-8.71 18.16-18.44 29.44-30 4.6 15.6 2.24 31.9-3.7 46.66"
                  fill="#fff"/>
            <path d="m2169.9 797.19c-11.28 11.547-20.15 21.289-29.43 30-9.09 8.75-18.05 16.481-27.34 23.821-9.31 7.297-18.95 14.136-29.61 20.859-10.65 6.938-22.27 13.18-36.19 21.348 28.36 15.769 64.71 8.222 89.87-11.559 12.73-9.91 22.89-23.082 29.01-37.808 5.93-14.774 8.3-31.063 3.69-46.661zm-97.7 143.09c-78.39 0-142.16-63.765-142.16-142.16 0-78.399 63.77-142.17 142.16-142.17s142.16 63.769 142.16 142.17c0 78.391-63.77 142.16-142.16 142.16"
                  fill="#b77a09"/>
            <path d="m2137.2 881.66c-25.16 19.781-61.51 27.328-89.87 11.559 13.92-8.168 25.54-14.41 36.19-21.348 10.66-6.723 20.3-13.562 29.61-20.859 9.29-7.34 18.25-15.071 27.34-23.821 9.28-8.711 18.15-18.453 29.43-30 4.61 15.598 2.24 31.887-3.69 46.661-6.12 14.726-16.28 27.898-29.01 37.808"
                  fill="#fff"/>
            <g fill="#0f315a">
                <path d="m781.17 152.27h53.09v-89.079c-15.039-6.4219-31.039-9.6211-47.989-9.6211-20.187 0-35.73 7.668-46.613 23.039-10.89 15.359-16.336 37.493-16.336 66.403 0 27.867 6.239 49.687 18.707 65.437 12.481 15.762 29.918 23.641 52.324 23.641 13.852 0 27.086-3.559 39.668-10.68l-10.214-26.379c-9.813 5.699-19 8.559-27.559 8.559-12.27 0-21.988-5.481-29.156-16.449-7.168-10.981-10.746-25.93-10.746-44.852 0-19.48 2.59-34.398 7.777-44.777 5.188-10.371 12.727-15.551 22.629-15.551 5.223 0 10.535 0.668 15.914 2.0196v39.79h-21.496v28.5"/>
                <path d="m893.06 151.33h8.308c7.609 0 13.074 2.152 16.395 6.473 3.324 4.308 4.988 10.75 4.988 19.289 0 8.879-1.762 15.191-5.281 18.961-3.524 3.758-8.973 5.629-16.34 5.629h-8.07zm0-27.797v-67.59h-32.305v173.66h42.277c17.903 0 31.106-4.25 39.613-12.711 8.508-8.481 12.766-21.422 12.766-38.84 0-21.93-7.394-37.27-22.207-45.973l33.375-76.137h-34.566l-27.438 67.59h-11.515"/>
                <path d="m1060.7 55.941h-78.265v173.66h78.265v-27.922h-45.96v-41.328h42.64v-28.032h-42.64v-48.109h45.96v-28.27"/>
                <path d="m1207.6 55.941h-39.44l-53.69 125.79h-1.54c1.98-9.589 2.97-19.871 2.97-30.878v-94.911h-29.93v173.66h39.67l53.21-124.48h1.32c-1.52 8.309-2.27 18.207-2.27 29.688v94.793h29.7v-173.66"/>
                <path d="m1265.9 143.01c0-19.793 2.5-34.883 7.48-45.25 4.99-10.383 12.31-15.562 21.98-15.562 19.48 0 29.22 20.262 29.22 60.813 0 40.539-9.66 60.808-28.98 60.808-9.82 0-17.23-5.172-22.22-15.5-4.98-10.332-7.48-25.441-7.48-45.308zm91.82 0c0-28.742-5.38-50.84-16.16-66.282-10.76-15.441-26.16-23.16-46.2-23.16-20.12 0-35.56 7.6914-46.33 23.09-10.76 15.41-16.15 37.61-16.15 66.578 0 28.75 5.39 50.782 16.15 66.114 10.77 15.32 26.3 22.988 46.57 22.988 20.03 0 35.4-7.719 46.08-23.11 10.7-15.402 16.04-37.48 16.04-66.218"/>
                <path d="m1413.4 132.8v-48.59h16.27c6.73 0 11.75 2.0586 15.03 6.1797 3.29 4.1094 4.93 10.488 4.93 19.109 0 15.531-6.81 23.301-20.44 23.301zm0 26.961h14.85c6.81 0 11.6 1.808 14.37 5.468 2.78 3.629 4.16 9.059 4.16 16.27 0 7.199-1.58 12.371-4.75 15.488-3.17 3.133-8.16 4.692-14.96 4.692h-13.67zm-30.4 69.84h44.3c18.05 0 31.2-3.512 39.43-10.524 8.25-7 12.36-18.148 12.36-33.418 0-10.07-2.19-18.48-6.54-25.262-4.35-6.757-10.29-10.867-17.81-12.277v-1.191c9.82-2.461 16.9-7.039 21.26-13.77 4.35-6.738 6.53-15.699 6.53-26.851 0-15.758-4.21-28.09-12.65-37-8.43-8.9102-19.97-13.367-34.62-13.367h-52.26v173.66"/>
                <path d="m1506.3 55.941v173.66h32.31v-145.39h44.78v-28.27h-77.09"/>
                <path d="m1682.3 55.941h-78.26v173.66h78.26v-27.922h-45.96v-41.328h42.64v-28.032h-42.64v-48.109h45.96v-28.27"/>
            </g>
            <path d="m1801.8 240.3h24.58v-240.3h-24.58v240.3" fill="#b77a09"/>
            <g fill="#0f315a">
                <path d="m2013.2 55.941-33.03 147.88h-1.3c1.51-11.398 2.26-21.851 2.26-31.351v-116.53h-29.93v173.66h49.64l29.7-136.47h0.95l29.45 136.47h50.38v-173.66h-30.66v117.7c0 9.757 0.56 19.73 1.66 29.949h-0.95l-32.9-147.65h-35.27"/>
                <path d="m2169.6 143.01c0-19.793 2.49-34.883 7.48-45.25 4.99-10.383 12.31-15.562 21.97-15.562 19.48 0 29.22 20.262 29.22 60.813 0 40.539-9.66 60.808-28.99 60.808-9.81 0-17.21-5.172-22.2-15.5-4.99-10.332-7.48-25.441-7.48-45.308zm91.81 0c0-28.742-5.38-50.84-16.16-66.282-10.76-15.441-26.16-23.16-46.2-23.16-20.12 0-35.56 7.6914-46.32 23.09-10.77 15.41-16.16 37.61-16.16 66.578 0 28.75 5.39 50.782 16.16 66.114 10.76 15.32 26.29 22.988 46.55 22.988 20.04 0 35.4-7.719 46.1-23.11 10.69-15.402 16.03-37.48 16.03-66.218"/>
                <path d="m2364 143.48c0 38.809-10.69 58.2-32.07 58.2h-12.95v-117.47h10.45c11.8 0 20.51 4.9297 26.13 14.789 5.62 9.859 8.44 24.68 8.44 44.48zm33.13 0.961c0-28.671-5.85-50.589-17.52-65.761-11.69-15.16-28.48-22.738-50.42-22.738h-42.52v173.66h46.43c20.21 0 35.92-7.473 47.17-22.403 11.24-14.918 16.86-35.847 16.86-62.758"/>
                <path d="m2488.6 128.39-9.27 40.39c-0.56 2.457-1.8 8.61-3.74 18.469-1.93 9.859-3.1 16.449-3.51 19.781-1.02-6.812-2.33-14.312-3.9-22.511-1.59-8.2-5.7-26.899-12.36-56.129zm16.03-72.45-9.98 43.828h-45.25l-9.97-43.828h-32.32l43 174.37h43.83l43.13-174.37h-32.44"/>
                <path d="m2674 55.941h-39.44l-53.69 125.79h-1.54c1.98-9.589 2.97-19.871 2.97-30.878v-94.911h-29.93v173.66h39.67l53.21-124.48h1.32c-1.52 8.309-2.27 18.207-2.27 29.688v94.793h29.7v-173.66"/>
                <path d="m2782.9 55.941h-78.26v173.66h78.26v-27.922h-45.95v-41.328h42.63v-28.032h-42.63v-48.109h45.95v-28.27"/>
                <path d="m151.05 1579.9h-151.05v-813.33h576.3v127.81h-425.26v685.52"/>
                <path d="m1086.4 1170.9c-34.09-27.89-84.05-41.83-149.88-41.83h-176.61v323.01h176.61c65.832 0 115.79-13.94 149.88-41.83 34.08-27.88 51.13-67.79 51.13-119.68 0-51.9-17.05-91.78-51.13-119.67zm41.25 374.13c-52.28 23.24-113.68 34.86-184.16 34.86h-334.63v-813.33h151.05v234.7h183.58c70.479 0 131.88 11.62 184.16 34.86 52.29 23.23 92.37 56.73 120.26 100.5 27.89 43.76 41.83 95.08 41.83 153.95 0 59.64-13.94 111.15-41.83 154.53s-67.97 76.7-120.26 99.93"/>
            </g>
        </g>
    </g>
</svg>
