<?xml version="1.0" encoding="UTF-8" standalone="no"?>
<svg
   width="72"
   height="39.994"
   enable-background="new 184.629 85.914 55.276 55.276"
   version="1.1"
   viewBox="184.63 85.914 72 39.994"
   xml:space="preserve"
   id="svg31"
   sodipodi:docname="logo_in2p3.svg"
   inkscape:version="1.1.2 (0a00cf5339, 2022-02-04)"
   xmlns:inkscape="http://www.inkscape.org/namespaces/inkscape"
   xmlns:sodipodi="http://sodipodi.sourceforge.net/DTD/sodipodi-0.dtd"
   xmlns="http://www.w3.org/2000/svg"
   xmlns:svg="http://www.w3.org/2000/svg"><sodipodi:namedview
   id="namedview33"
   pagecolor="#ffffff"
   bordercolor="#666666"
   borderopacity="1.0"
   inkscape:pageshadow="2"
   inkscape:pageopacity="0.0"
   inkscape:pagecheckerboard="0"
   showgrid="false"
   inkscape:zoom="17.977697"
   inkscape:cx="23.501342"
   inkscape:cy="19.997"
   inkscape:window-width="1850"
   inkscape:window-height="1136"
   inkscape:window-x="70"
   inkscape:window-y="27"
   inkscape:window-maximized="1"
   inkscape:current-layer="svg31" /><defs
   id="defs13"><radialGradient
   id="a"
   cx="1981.3"
   cy="-1309.8"
   r="212.81"
   gradientTransform="matrix(0.11768682,0,0,-0.11768682,-24.213476,-53.041191)"
   gradientUnits="userSpaceOnUse">
		<stop
   stop-color="#456587"
   offset="0"
   id="stop2" />
		<stop
   stop-color="#2C4F73"
   offset=".2555"
   id="stop4" />
		<stop
   stop-color="#0C395D"
   offset=".5931"
   id="stop6" />
		<stop
   stop-color="#002D50"
   offset=".8524"
   id="stop8" />
		<stop
   stop-color="#00294B"
   offset="1"
   id="stop10" />
	</radialGradient>
        
        
		
            
            
            
	</defs>
    <path
   d="m 221.10819,125.83403 c -0.27346,-0.0841 -0.52667,-0.34443 -0.64657,-0.66487 -0.21848,-0.58395 -0.21727,-1.6407 0.003,-2.23081 0.12217,-0.32804 0.42564,-0.64986 0.67884,-0.71996 0.22428,-0.0621 0.56586,-0.0622 0.79111,-5.1e-4 0.23144,0.0637 0.51589,0.36077 0.61056,0.63792 0.0838,0.24522 0.18341,1.03099 0.14383,1.13419 -0.0229,0.0597 -0.15607,0.0689 -0.99845,0.0689 h -0.97201 l 0.0285,0.34061 c 0.0704,0.83713 0.37423,1.22945 0.87879,1.13477 0.28643,-0.0537 0.51562,-0.34148 0.57681,-0.72422 l 0.0287,-0.17982 h 0.43524 l -0.0285,0.14283 c -0.11414,0.57083 -0.39276,0.9498 -0.7836,1.06588 -0.27196,0.0808 -0.47107,0.0794 -0.74589,-0.006 z m 1.09982,-2.45045 c -0.0436,-0.57582 -0.27753,-0.86226 -0.70456,-0.86262 -0.47993,-5.1e-4 -0.66742,0.24333 -0.75215,0.97769 l -0.024,0.20875 h 1.50531 z m 1.50604,2.43523 c -0.38326,-0.13199 -0.52371,-0.34702 -0.59685,-0.91368 l -0.0298,-0.23074 h 0.45081 l 0.001,0.16482 c 0.001,0.21545 0.13845,0.51252 0.27934,0.60484 0.27582,0.18071 0.7256,0.11678 0.94623,-0.13453 0.11479,-0.13072 0.13584,-0.19031 0.13571,-0.38394 -1.5e-4,-0.26658 -0.1087,-0.47804 -0.29456,-0.57405 -0.0675,-0.0348 -0.30003,-0.13486 -0.51662,-0.22217 -0.21662,-0.0873 -0.46838,-0.20808 -0.5595,-0.26836 -0.43545,-0.28817 -0.46769,-1.0074 -0.0634,-1.41181 0.21119,-0.21118 0.4125,-0.27969 0.81886,-0.27866 0.58436,0.002 0.86728,0.26119 0.94805,0.87042 l 0.0301,0.22712 h -0.45083 v -0.15523 c 0,-0.38247 -0.21462,-0.59191 -0.6066,-0.59191 -0.42586,0 -0.69035,0.33738 -0.58149,0.74166 0.0601,0.2233 0.22183,0.34845 0.6607,0.51139 0.70197,0.26061 0.90508,0.4202 1.00631,0.7906 0.065,0.23825 0.061,0.35987 -0.0221,0.63906 -0.17259,0.58116 -0.86241,0.85403 -1.55557,0.61526 z m 4.31057,-0.0302 c -0.39787,-0.19828 -0.58398,-0.58987 -0.66667,-1.40285 -0.0554,-0.54386 0.005,-1.21838 0.14133,-1.58615 0.20023,-0.53934 0.65967,-0.79773 1.19478,-0.67209 0.17375,0.0407 0.2723,0.0993 0.41469,0.2462 l 0.1868,0.19267 v -1.53976 h 0.74712 v 4.7905 h -0.70319 v -0.40873 l -0.12737,0.17582 c -0.24106,0.33279 -0.75316,0.42096 -1.1875,0.20448 z m 0.99764,-0.56895 c 0.0576,-0.0378 0.13446,-0.13957 0.17065,-0.22617 0.10659,-0.25511 0.15569,-0.92161 0.10459,-1.41967 -0.0661,-0.64416 -0.18866,-0.83028 -0.57081,-0.86706 -0.19679,-0.0189 -0.23089,-0.008 -0.34788,0.10876 -0.0714,0.0714 -0.15138,0.20727 -0.17784,0.30206 -0.13566,0.48597 -0.0917,1.63851 0.0734,1.92464 0.15607,0.27051 0.48634,0.34885 0.74792,0.17742 z m 2.41622,0.62274 c -0.35309,-0.12603 -0.54459,-0.33231 -0.7006,-0.7547 -0.084,-0.22735 -0.0962,-0.35211 -0.0989,-1.00667 -0.003,-0.66331 0.008,-0.78346 0.0986,-1.07054 0.18976,-0.60409 0.59823,-0.9072 1.21583,-0.90224 0.46008,0.004 0.6702,0.078 0.90479,0.32012 0.24632,0.2542 0.33125,0.52689 0.37451,1.20221 l 0.0303,0.47245 h -1.90185 v 0.31016 c 0,0.40623 0.0707,0.67293 0.22095,0.83378 0.10487,0.11226 0.15386,0.13057 0.34944,0.13057 0.19107,0 0.24734,-0.0199 0.35178,-0.12433 0.12232,-0.12231 0.21979,-0.37361 0.22027,-0.56788 5.1e-4,-0.0944 0.0164,-0.0989 0.35796,-0.0989 h 0.35772 l -0.027,0.22807 c -0.0588,0.49644 -0.37104,0.89918 -0.79526,1.02575 -0.26699,0.0797 -0.73838,0.0807 -0.95854,0.002 z m 1.04644,-2.53449 c -0.0382,-0.33719 -0.13048,-0.53275 -0.29831,-0.63189 -0.15932,-0.0941 -0.43664,-0.0698 -0.57136,0.0498 -0.13916,0.12373 -0.25204,0.40959 -0.25311,0.64099 l -0.001,0.20875 h 1.154 z m 1.77688,2.50135 c -0.15058,-0.0777 -0.22399,-0.15449 -0.30765,-0.32179 l -0.10987,-0.21976 -0.0131,-1.55104 -0.0131,-1.55105 0.72936,0.0256 0.022,1.46526 0.0219,1.46526 0.10203,0.0826 c 0.24055,0.19467 0.61695,0.12635 0.81805,-0.14852 0.0865,-0.11811 0.0913,-0.1897 0.10351,-1.50699 l 0.0128,-1.38303 0.3608,0.0127 0.3608,0.0127 0.0116,1.81293 0.0114,1.81293 h -0.70416 v -0.40903 l -0.15588,0.16049 c -0.2225,0.22911 -0.39468,0.30415 -0.74508,0.32473 -0.25828,0.0152 -0.33938,0.002 -0.50542,-0.084 z m 20.56533,0.054 c -0.46464,-0.14099 -0.70061,-0.4849 -0.70061,-1.02109 v -0.21177 h 0.65923 v 0.16924 c 0,0.4173 0.15817,0.57789 0.5691,0.57789 0.22876,0 0.28352,-0.0169 0.40473,-0.12524 0.12142,-0.10849 0.14062,-0.1551 0.14353,-0.34829 0.006,-0.35164 -0.0843,-0.43549 -0.71564,-0.66952 -0.29398,-0.10897 -0.60561,-0.25487 -0.6925,-0.32421 -0.21869,-0.17449 -0.32258,-0.42381 -0.32258,-0.77414 0,-0.67701 0.40604,-1.02284 1.20745,-1.02838 0.34825,-0.003 0.42686,0.0122 0.6483,0.12055 0.317,0.15509 0.46878,0.38883 0.50388,0.77596 l 0.024,0.26371 h -0.7154 v -0.1362 c 0,-0.41723 -0.378,-0.648 -0.74799,-0.45666 -0.1639,0.0848 -0.21888,0.18987 -0.21888,0.41852 0,0.26554 0.14624,0.38081 0.75171,0.59254 0.41815,0.14621 0.53442,0.20775 0.70459,0.37289 0.16373,0.15889 0.21342,0.24356 0.25274,0.43067 0.0646,0.30745 0.062,0.38798 -0.0215,0.67108 -0.0972,0.32952 -0.35126,0.57103 -0.70511,0.67032 -0.27076,0.0759 -0.82723,0.0933 -1.02896,0.0321 z m -37.26652,-2.44142 v -2.39525 h 0.43949 v 4.3933 l 1.99973,0.0236 0.0136,0.18678 0.0135,0.1868 h -2.46618 z m 19.16198,2.37122 c 0,-0.0132 0.2179,-0.43641 0.48421,-0.94041 l 0.48422,-0.91637 -0.44051,-0.81463 c -0.24227,-0.44804 -0.45241,-0.84558 -0.46695,-0.88352 -0.0228,-0.0595 0.0287,-0.0689 0.37624,-0.0689 h 0.40266 l 0.1035,0.23075 c 0.057,0.12689 0.18227,0.39692 0.27856,0.60005 l 0.17508,0.3693 0.60268,-1.1781 0.38455,-0.0127 c 0.21151,-0.007 0.38455,-5.3e-4 0.38455,0.0144 0,0.0149 -0.20835,0.4124 -0.46302,0.88317 l -0.46305,0.85599 0.48788,0.94244 0.48785,0.94245 h -0.80086 l -0.3166,-0.66022 -0.3166,-0.66022 -0.3047,0.66022 -0.30473,0.66022 h -0.38747 c -0.21313,0 -0.38749,-0.0109 -0.38749,-0.0241 z m 4.80098,-1.7889 0.0116,-1.81293 0.36257,-0.0127 0.3626,-0.0128 v 3.65135 h -0.74814 z m 1.48376,-0.0128 v -1.82575 l 0.68121,0.0256 0.0219,0.19776 c 0.0147,0.13271 0.0321,0.17305 0.0529,0.12263 0.0548,-0.13295 0.38612,-0.33604 0.63155,-0.38699 0.30127,-0.0626 0.66888,0.006 0.84937,0.15753 0.27125,0.22824 0.28572,0.32401 0.30317,2.00767 l 0.0158,1.52724 h -0.75411 l -0.002,-1.26354 c -0.001,-0.69494 -0.0189,-1.35194 -0.0398,-1.46001 -0.097,-0.50278 -0.69901,-0.54944 -0.95897,-0.0743 -0.0663,0.12123 -0.0778,0.30861 -0.0904,1.46839 l -0.0143,1.32944 h -0.69641 v -1.82575 z m 3.42807,0.28753 v -1.53823 h -0.53159 l 0.0131,-0.27468 0.0131,-0.27468 0.49435,-0.0261 0.0198,-0.34344 c 0.0215,-0.37062 0.10496,-0.57001 0.29882,-0.71351 0.1427,-0.10563 0.58018,-0.18482 0.82133,-0.14866 l 0.18953,0.0284 v 0.56596 h -0.19777 c -0.27378,0 -0.37358,0.10567 -0.37358,0.39554 v 0.21975 h 0.57135 v 0.57134 h -0.57135 v 3.07646 h -0.74712 z m 1.68053,-0.27469 0.0116,-1.81293 0.72516,-0.0256 v 3.65135 h -0.74814 z m 1.45033,0 0.0116,-1.81293 0.6812,-0.0256 v 0.41707 l 0.16482,-0.15754 c 0.203,-0.19405 0.29493,-0.24225 0.5777,-0.30289 0.48599,-0.10423 0.92941,0.11398 1.05008,0.51677 0.0372,0.12415 0.0532,0.63014 0.0532,1.67791 v 1.50014 h -0.74712 v -1.3866 c 0,-1.1508 -0.0113,-1.40846 -0.0664,-1.51493 -0.0826,-0.15981 -0.1896,-0.21886 -0.39641,-0.21886 -0.22153,0 -0.40182,0.11837 -0.50503,0.33154 -0.0807,0.16664 -0.087,0.27414 -0.087,1.48427 v 1.30461 h -0.74814 z m 3.25226,0 0.0116,-1.81293 0.72517,-0.0256 v 3.65135 h -0.74807 z m -11.29604,-2.68087 0.0128,-0.36259 0.36258,-0.0128 0.36258,-0.0127 v 0.75069 h -0.75069 z m 6.59236,0 0.0128,-0.36259 0.36257,-0.0128 0.3626,-0.0127 v 0.75069 h -0.75069 z m 4.70259,0 0.0127,-0.36259 0.36259,-0.0128 0.36259,-0.0127 v 0.75069 h -0.75069 z m -1.95516,-2.62858 c -1.28218,-0.17736 -1.99223,-0.98155 -2.08341,-2.35964 l -0.0269,-0.40653 h 1.46322 l 5.2e-4,0.2527 c 0.002,0.88651 0.49473,1.46126 1.25202,1.45994 0.66279,-0.001 1.08038,-0.37064 1.23309,-1.091 0.15481,-0.73045 0.007,-1.56744 -0.34018,-1.92618 -0.24283,-0.25096 -0.51289,-0.33504 -1.14562,-0.35671 l -0.56035,-0.0192 v -1.0444 l 0.27467,-5.2e-4 c 0.35131,-5.1e-4 0.80065,-0.0732 0.9597,-0.15546 0.37734,-0.19511 0.6071,-0.64144 0.64379,-1.25057 0.0416,-0.69045 -0.15271,-1.17854 -0.55969,-1.40583 -0.16314,-0.0911 -0.25572,-0.11025 -0.52865,-0.10933 -0.27907,10e-4 -0.36261,0.0197 -0.53362,0.11991 -0.11451,0.0672 -0.261,0.20675 -0.3366,0.3209 -0.14132,0.21336 -0.2712,0.68468 -0.2712,0.9841 v 0.17811 h -1.46249 l 0.0302,-0.34061 c 0.0613,-0.68778 0.26803,-1.21205 0.63352,-1.6056 0.44979,-0.48432 0.9817,-0.68936 1.87731,-0.72361 0.48302,-0.0184 0.62952,-0.007 0.93072,0.0684 0.49534,0.12527 0.8238,0.29634 1.11292,0.57969 0.70635,0.69219 0.85345,2.01881 0.32483,2.92972 -0.21841,0.37634 -0.55803,0.64362 -1.0519,0.82789 -0.0699,0.026 -0.0432,0.0436 0.13184,0.0863 0.36405,0.0886 0.54011,0.18444 0.80749,0.43945 0.4451,0.42454 0.62624,0.92809 0.62682,1.74243 6e-4,0.95031 -0.25485,1.6557 -0.77669,2.14385 -0.32085,0.30015 -0.60957,0.45256 -1.08824,0.57447 -0.40798,0.10391 -1.12319,0.14446 -1.53728,0.0872 z m -25.18469,-0.1575 c -0.0167,-0.0167 -0.0303,-2.1432 -0.0303,-4.72554 v -4.69524 h 1.53859 l -0.0224,9.42733 -0.72782,0.0119 c -0.40028,0.007 -0.74144,-0.002 -0.75811,-0.0183 z m 2.98864,3e-5 c -0.0168,-0.0168 -0.0304,-2.14363 -0.0304,-4.72648 v -4.69611 l 1.86121,0.0237 1.34379,3.45217 1.34378,3.45217 0.0113,-3.46316 0.0113,-3.46317 h 1.44982 v 9.44917 h -1.80332 l -0.0663,-0.14283 c -0.0365,-0.0786 -0.65837,-1.70522 -1.38202,-3.61479 l -1.31575,-3.47198 -0.0127,3.60386 -0.0127,3.60387 -0.6838,0.012 c -0.37609,0.007 -0.69747,-0.002 -0.71418,-0.0183 z m 7.2022,-0.011 c -0.0468,-0.0759 0.0726,-0.99481 0.17552,-1.34998 0.29366,-1.01337 0.74283,-1.61637 2.04226,-2.74219 1.30257,-1.12844 1.62154,-1.63371 1.65949,-2.62887 0.0287,-0.75353 -0.12731,-1.15233 -0.54765,-1.39943 -0.18904,-0.11112 -0.25288,-0.12453 -0.58573,-0.12302 -0.29639,10e-4 -0.41119,0.0215 -0.55564,0.0974 -0.42219,0.22187 -0.65392,0.69339 -0.71137,1.44749 l -0.0296,0.38724 h -1.40634 l 0.01,-0.39554 c 0.018,-0.72146 0.26564,-1.43525 0.64255,-1.85218 0.46234,-0.51145 0.9999,-0.7195 1.94307,-0.752 0.52957,-0.0183 0.66996,-0.008 0.9833,0.0711 0.52103,0.13176 0.804,0.27486 1.09799,0.55534 0.46262,0.44125 0.70703,1.08045 0.70703,1.84912 0,1.26455 -0.46648,2.14531 -1.67005,3.15322 -0.91003,0.76206 -1.24379,1.0669 -1.44472,1.31968 -0.24584,0.30927 -0.43905,0.6265 -0.54614,0.89678 l -0.074,0.18678 h 3.77894 v 1.31844 h -2.72223 c -1.55127,0 -2.73273,-0.0169 -2.74656,-0.0392 z m 6.68571,0.011 c -0.0167,-0.0167 -0.0304,-2.14319 -0.0304,-4.72553 v -4.69524 l 1.70304,5.9e-4 c 1.87185,6e-4 2.08049,0.0218 2.58955,0.25999 0.31445,0.14715 0.69515,0.48463 0.8892,0.78827 0.0715,0.11195 0.18397,0.36178 0.24979,0.55515 0.15875,0.46639 0.20192,1.41042 0.0879,1.92283 -0.20634,0.92744 -0.78564,1.57406 -1.67048,1.86441 -0.33051,0.10846 -0.42259,0.11787 -1.33243,0.13615 l -0.97739,0.0196 -0.023,3.87995 -0.7278,0.0119 c -0.40029,0.007 -0.74144,-0.002 -0.75812,-0.0183 z m 3.27972,-5.19438 c 0.5391,-0.2654 0.75426,-0.68163 0.75353,-1.45762 -5.1e-4,-0.63867 -0.0864,-0.90704 -0.38609,-1.20658 -0.3318,-0.3318 -0.50654,-0.38266 -1.40307,-0.40846 l -0.7362,-0.0211 v 3.2725 l 0.7389,-0.0169 c 0.73153,-0.0168 0.7418,-0.0183 1.03296,-0.16171 z"
   fill="#e65113"
   stroke-width="0.043949"
   id="path15" /><path
   d="m 203.62995,85.94723 c -0.35685,-0.02112 -0.71224,-0.0335 -1.06326,-0.0335 -4.91212,-0.0058 -9.36106,2.085008 -13.23686,6.230992 -3.52477,3.765833 -4.70965,6.799036 -4.698,10.458538 0.006,1.95757 0.3532,4.09647 0.86736,6.62499 0.96713,4.75262 3.78768,9.3392 7.74067,12.58797 3.02447,2.48482 6.39849,3.75636 9.95532,3.77967 1.84177,0.0117 3.73233,-0.31024 5.65057,-0.9715 6.18948,-2.13599 12.11169,-8.25264 14.39842,-14.87325 0.72389,-2.09448 1.07564,-4.13506 1.06982,-6.07515 -0.0182,-4.743156 -2.18624,-8.900064 -6.32494,-11.872093 -5.02354,-3.608529 -9.85336,-5.577744 -14.3591,-5.856667 z"
   fill="url(#a)"
   id="path17"
   style="fill:url(#a);stroke-width:0.72826" /><path
   d="m 196.56226,105.82219 h -1.36111 l -0.002,0.0393 c -0.0117,0.26509 -0.16823,2.5795 -2.24013,2.5795 -1.85123,0 -2.79142,-1.65898 -2.79287,-4.93105 0.001,-3.27134 0.94164,-4.931046 2.79287,-4.931046 2.10686,0 2.23431,2.473166 2.24013,2.579496 l 0.002,0.0393 h 1.36111 c 0.12526,0 0.24688,-0.0502 0.335,-0.14056 0.0845,-0.0867 0.12745,-0.19808 0.12162,-0.31461 -0.0277,-0.64159 -0.35684,-3.84448 -4.07825,-3.84448 -3.00699,0 -4.59678,2.286008 -4.59678,6.60896 0,4.33096 1.58906,6.6228 4.59678,6.6228 3.58012,0 4.02509,-2.92542 4.07825,-3.82118 0.008,-0.12381 -0.0335,-0.24397 -0.11943,-0.33355 -0.0881,-0.10195 -0.2112,-0.15293 -0.33719,-0.15293 z"
   fill="#ffffff"
   id="path19"
   style="stroke-width:0.72826;fill:#e5e7eb;fill-opacity:1" /><path
   d="m 217.71093,102.7198 -1.17031,-0.50978 c -1.12807,-0.49449 -1.52643,-0.9766 -1.52643,-1.84177 0,-1.128076 0.82366,-1.884738 2.05078,-1.884738 0.72607,0 1.32033,0.148565 2.04859,0.888477 l 0.0393,0.04151 0.62557,-0.572413 c 0.36341,-0.335728 0.25708,-0.64014 0.10633,-0.834586 -0.61028,-0.719521 -1.58906,-1.113509 -2.7601,-1.113509 -2.25543,0 -3.89401,1.471085 -3.89401,3.499289 0,1.99325 1.25625,2.82711 2.613,3.43156 l 1.19653,0.53309 c 1.20308,0.53891 1.77549,0.99844 1.77549,2.15565 0,1.57741 -1.42593,1.99907 -2.2678,1.99907 -0.72389,0 -1.53226,-0.15512 -2.52269,-1.27737 l -0.0393,-0.0451 -0.65179,0.57241 c -0.33573,0.29422 -0.33718,0.54766 -0.0117,0.96713 0.89576,1.15357 2.21245,1.39462 3.15773,1.39462 2.04423,0 4.11613,-1.25552 4.11613,-3.65659 7.3e-4,-2.07918 -1.15284,-3.00116 -2.88537,-3.7469 z"
   fill="#62c4dd"
   id="path21"
   style="stroke-width:0.72826" /><path
   d="m 206.15345,100.67339 c 0,-2.042042 -1.65607,-3.772387 -3.69811,-3.772387 -0.9613,0 -1.83594,0.367043 -2.49356,0.967129 v -0.702043 h -1.2293 c -0.37069,0 -0.51197,0.241054 -0.51197,0.519978 v 11.918703 c 0,0.335 0.20391,0.51342 0.50614,0.51342 h 1.23003 v -9.3727 c 0,-1.231491 0.99845,-2.230663 2.23066,-2.230663 1.23222,0 2.23066,0.998444 2.23066,2.230663 v 9.37489 h 1.22202 c 0.33937,0 0.51416,-0.18862 0.51416,-0.51197 -7.3e-4,7.3e-4 -7.3e-4,-8.92264 -7.3e-4,-8.93502 z"
   fill="#62c4dd"
   id="path23"
   style="stroke-width:0.72826" /><path
   d="m 213.20301,97.78948 c 0.0648,-0.08084 0.10414,-0.180609 0.10414,-0.290576 0,-0.205369 -0.13328,-0.37651 -0.31825,-0.439869 -0.35467,-0.119435 -0.73555,-0.18425 -1.12953,-0.18425 -0.96131,0 -1.83595,0.367043 -2.49357,0.96713 v -0.702043 h -1.23003 c -0.37068,0 -0.51196,0.241054 -0.51196,0.519978 v 11.91652 c 0,0.335 0.20609,0.51342 0.50832,0.51342 h 1.2293 v -9.37198 c 0,-1.232213 0.99845,-2.230657 2.23066,-2.230657 0.32189,0 0.62776,0.07137 0.9045,0.192989 l 0.71006,-0.892847 z"
   fill="#ffffff"
   id="path25"
   style="stroke-width:0.72826;fill:#e5e7eb;fill-opacity:1" />
</svg>
